<?xml version="1.0" encoding="UTF-8" standalone="no"?>
<!-- This is a Stata 16.1 generated SVG file (http://www.stata.com) -->

<svg version="1.1" width="600px" height="436px" viewBox="0 0 3960 2880" xmlns="http://www.w3.org/2000/svg" xmlns:xlink="http://www.w3.org/1999/xlink">
	<desc>Stata Graph - Graph</desc>
	<rect x="0" y="0" width="3960" height="2880" style="fill:#EAF2F3;stroke:none"/>
	<rect x="0.00" y="0.00" width="3959.88" height="2880.00" style="fill:#EAF2F3"/>
	<rect x="2.88" y="2.88" width="3954.12" height="2874.24" style="fill:none;stroke:#EAF2F3;stroke-width:5.76"/>
	<rect x="390.80" y="100.86" width="3468.22" height="2388.33" style="fill:#FFFFFF"/>
	<rect x="393.68" y="103.74" width="3462.46" height="2382.57" style="fill:none;stroke:#FFFFFF;stroke-width:5.76"/>
	<line x1="390.80" y1="2489.19" x2="3859.02" y2="2489.19" style="stroke:#EAF2F3;stroke-width:8.64"/>
	<line x1="390.80" y1="1714.24" x2="3859.02" y2="1714.24" style="stroke:#EAF2F3;stroke-width:8.64"/>
	<line x1="390.80" y1="939.17" x2="3859.02" y2="939.17" style="stroke:#EAF2F3;stroke-width:8.64"/>
	<line x1="390.80" y1="164.22" x2="3859.02" y2="164.22" style="stroke:#EAF2F3;stroke-width:8.64"/>
	<rect x="567.27" y="2421.49" width="226.22" height="67.69" style="fill:#CAC27E"/>
	<rect x="571.59" y="2425.81" width="217.58" height="59.05" style="fill:none;stroke:#D7D29E;stroke-width:8.64"/>
	<rect x="793.49" y="2421.49" width="226.22" height="67.69" style="fill:#CAC27E"/>
	<rect x="797.80" y="2425.81" width="217.58" height="59.05" style="fill:none;stroke:#D7D29E;stroke-width:8.64"/>
	<rect x="1019.70" y="2421.49" width="226.21" height="67.69" style="fill:#CAC27E"/>
	<rect x="1024.02" y="2425.81" width="217.58" height="59.05" style="fill:none;stroke:#D7D29E;stroke-width:8.64"/>
	<rect x="1245.91" y="1879.94" width="226.22" height="609.24" style="fill:#CAC27E"/>
	<rect x="1250.23" y="1884.26" width="217.58" height="600.60" style="fill:none;stroke:#D7D29E;stroke-width:8.64"/>
	<rect x="1472.13" y="1541.35" width="226.21" height="947.83" style="fill:#CAC27E"/>
	<rect x="1476.45" y="1545.67" width="217.58" height="939.19" style="fill:none;stroke:#D7D29E;stroke-width:8.64"/>
	<rect x="1698.35" y="1541.35" width="226.21" height="947.83" style="fill:#CAC27E"/>
	<rect x="1702.66" y="1545.67" width="217.58" height="939.19" style="fill:none;stroke:#D7D29E;stroke-width:8.64"/>
	<rect x="1924.56" y="255.06" width="226.22" height="2234.13" style="fill:#CAC27E"/>
	<rect x="1928.88" y="259.38" width="217.58" height="2225.49" style="fill:none;stroke:#D7D29E;stroke-width:8.64"/>
	<rect x="2150.78" y="390.44" width="226.34" height="2098.74" style="fill:#CAC27E"/>
	<rect x="2155.09" y="394.76" width="217.70" height="2090.10" style="fill:none;stroke:#D7D29E;stroke-width:8.64"/>
	<rect x="2377.11" y="525.83" width="226.22" height="1963.36" style="fill:#CAC27E"/>
	<rect x="2381.43" y="530.15" width="217.58" height="1954.72" style="fill:none;stroke:#D7D29E;stroke-width:8.64"/>
	<rect x="2603.33" y="999.81" width="226.21" height="1489.38" style="fill:#CAC27E"/>
	<rect x="2607.65" y="1004.13" width="217.58" height="1480.74" style="fill:none;stroke:#D7D29E;stroke-width:8.64"/>
	<rect x="2829.54" y="864.42" width="226.22" height="1624.76" style="fill:#CAC27E"/>
	<rect x="2833.86" y="868.74" width="217.58" height="1616.12" style="fill:none;stroke:#D7D29E;stroke-width:8.64"/>
	<rect x="3055.76" y="1947.64" width="226.22" height="541.55" style="fill:#CAC27E"/>
	<rect x="3060.08" y="1951.96" width="217.58" height="532.91" style="fill:none;stroke:#D7D29E;stroke-width:8.64"/>
	<rect x="3281.97" y="2353.80" width="226.21" height="135.39" style="fill:#CAC27E"/>
	<rect x="3286.29" y="2358.12" width="217.58" height="126.75" style="fill:none;stroke:#D7D29E;stroke-width:8.64"/>
	<path d=" M567.15 2482.38 L577.05 2481.88 L586.82 2481.39 L596.72 2480.89 L606.50 2480.28 L616.40 2479.66 L626.17 2479.04 L636.08 2478.42 L645.85 2477.68 L655.75 2476.93 L665.53 2476.19 L675.43 2475.32 L685.20 2474.46 L695.10 2473.47 L704.88 2472.48 L714.78 2471.49 L724.56 2470.37 L734.46 2469.26 L744.23 2468.02 L754.13 2466.66 L763.91 2465.30 L773.68 2463.94 L783.59 2462.45 L793.36 2460.85 L803.26 2459.11 L813.04 2457.38 L822.94 2455.52 L832.71 2453.67 L842.61 2451.56 L852.39 2449.46 L862.29 2447.23 L872.07 2444.88 L881.97 2442.41 L891.74 2439.81 L901.64 2437.08 L911.42 2434.36 L921.32 2431.39 L931.10 2428.30 L941.00 2424.96 L950.77 2421.62 L960.67 2418.15 L970.45 2414.44 L980.35 2410.60 L990.12 2406.52 L1000.02 2402.31 L1009.80 2397.98 L1019.70 2393.40 L1029.48 2388.70 L1039.25 2383.75 L1049.15 2378.55 L1058.93 2373.23 L1068.83 2367.66 L1078.61 2361.84 L1088.51 2355.90 L1098.28 2349.59 L1108.18 2343.16 L1117.96 2336.35 L1127.86 2329.42 L1137.63 2322.24 L1147.53 2314.69 L1157.31 2306.90 L1167.21 2298.85 L1176.99 2290.56 L1186.89 2282.02 L1196.66 2273.11 L1206.56 2263.83 L1216.34 2254.42 L1226.24 2244.65 L1236.02 2234.50 L1245.91 2223.98 L1255.69 2213.21 L1265.59 2202.20 L1275.37 2190.69 L1285.27 2178.93 L1295.04 2166.93 L1304.94 2154.43 L1314.72 2141.56 L1324.50 2128.44 L1334.40 2114.95 L1344.17 2100.97 L1354.07 2086.74 L1363.85 2072.13 L1373.75 2057.16 L1383.53 2041.82 L1393.42 2026.10 L1403.20 2009.89 L1413.10 1993.43 L1422.88 1976.60 L1432.78 1959.39 L1442.55 1941.70 L1452.45 1923.75 L1462.23 1905.31 L1472.13 1886.63 L1481.91 1867.57 L1491.81 1848.02 L1501.58 1828.22 L1511.48 1808.04 L1521.26 1787.50 L1531.16 1766.59 L1540.93 1745.30 L1550.84 1723.64 L1560.61 1701.74 L1570.51 1679.59 L1580.29 1656.94 L1590.19 1634.05 L1599.96 1610.90 L1609.74 1587.39 L1619.64 1563.63 L1629.42 1539.62 L1639.32 1515.37 L1649.09 1490.86 L1658.99 1465.99 L1668.77 1440.99 L1678.67 1415.87 L1688.44 1390.37 L1698.35 1364.76 L1708.12 1339.02 L1718.02 1313.15 L1727.80 1287.04 L1737.70 1260.93 L1747.47 1234.69 L1757.37 1208.33 L1767.15 1181.85 L1777.05 1155.37 L1786.83 1128.88 L1796.73 1102.40 L1806.50 1075.92 L1816.40 1049.43 L1826.18 1022.95 L1836.08 996.59 L1845.86 970.35 L1855.76 944.24 L1865.53 918.25 L1875.31 892.39 L1885.21 866.65 L1894.98 841.16 L1904.88 815.91 L1914.66 790.91 L1924.56 766.16 L1934.34 741.78 L1944.24 717.65 L1954.01 693.89 L1963.91 670.37 L1973.69 647.36 L1983.59 624.71 L1993.37 602.43 L2003.27 580.65 L2013.04 559.37 L2022.94 538.45 L2032.72 518.16 L2042.62 498.36 L2052.39 479.17 L2062.29 460.49 L2072.07 442.30 L2081.97 424.85 L2091.75 408.02 L2101.65 391.80 L2111.42 376.21 L2121.32 361.36 L2131.10 347.25 L2141.00 333.76 L2150.78 321.02 L2160.55 309.01 L2170.45 297.75 L2180.23 287.23 L2190.13 277.46 L2199.90 268.55 L2209.80 260.38 L2219.58 253.08 L2229.48 246.52 L2239.26 240.70 L2249.16 235.87 L2258.93 231.79 L2268.83 228.57 L2278.61 226.22 L2288.51 224.61 L2298.28 223.87 L2308.18 223.99 L2317.96 224.98 L2327.86 226.84 L2337.64 229.56 L2347.54 233.03 L2357.31 237.36 L2367.21 242.43 L2376.99 248.50 L2386.89 255.30 L2396.67 262.85 L2406.57 271.27 L2416.34 280.43 L2426.12 290.45 L2436.02 301.22 L2445.80 312.73 L2455.70 324.98 L2465.47 337.97 L2475.37 351.58 L2485.15 366.06 L2495.05 381.16 L2504.82 396.88 L2514.72 413.34 L2524.50 430.42 L2534.40 447.99 L2544.18 466.30 L2554.08 485.12 L2563.85 504.54 L2573.75 524.59 L2583.53 545.01 L2593.43 566.05 L2603.20 587.58 L2613.11 609.49 L2622.88 631.89 L2632.78 654.66 L2642.56 677.80 L2652.46 701.31 L2662.23 725.32 L2672.13 749.45 L2681.91 774.08 L2691.81 798.83 L2701.59 823.95 L2711.36 849.32 L2721.26 874.82 L2731.04 900.56 L2740.94 926.42 L2750.72 952.53 L2760.61 978.65 L2770.39 1005.01 L2780.29 1031.36 L2790.07 1057.85 L2799.97 1084.33 L2809.74 1110.81 L2819.64 1137.30 L2829.42 1163.78 L2839.32 1190.26 L2849.10 1216.62 L2859.00 1242.98 L2868.77 1269.22 L2878.67 1295.33 L2888.45 1321.44 L2898.35 1347.31 L2908.13 1372.93 L2918.03 1398.54 L2927.80 1423.79 L2937.70 1449.03 L2947.48 1473.91 L2957.38 1498.66 L2967.15 1523.04 L2976.93 1547.29 L2986.83 1571.30 L2996.61 1594.94 L3006.51 1618.33 L3016.28 1641.35 L3026.18 1664.12 L3035.96 1686.64 L3045.86 1708.79 L3055.64 1730.57 L3065.53 1752.11 L3075.31 1773.27 L3085.21 1794.06 L3094.99 1814.48 L3104.89 1834.53 L3114.66 1854.33 L3124.56 1873.63 L3134.34 1892.57 L3144.24 1911.25 L3154.02 1929.45 L3163.92 1947.39 L3173.69 1964.84 L3183.59 1982.04 L3193.37 1998.75 L3203.27 2015.08 L3213.05 2031.05 L3222.95 2046.77 L3232.72 2061.99 L3242.62 2076.84 L3252.40 2091.32 L3262.17 2105.42 L3272.07 2119.28 L3281.85 2132.65 L3291.75 2145.77 L3301.53 2158.39 L3311.43 2170.77 L3321.20 2182.77 L3331.10 2194.40 L3340.88 2205.79 L3350.78 2216.68 L3360.55 2227.45 L3370.45 2237.72 L3380.23 2247.74 L3390.13 2257.39 L3399.91 2266.80 L3409.81 2275.96 L3419.58 2284.74 L3429.48 2293.28 L3439.26 2301.45 L3449.16 2309.37 L3458.94 2317.04 L3468.84 2324.47 L3478.61 2331.65 L3488.51 2338.58 L3498.29 2345.26 L3508.19 2351.57" stroke-linejoin="round" style="fill:none;stroke:#2D6D66;stroke-width:8.64"/>
	<line x1="390.80" y1="2489.19" x2="390.80" y2="100.86" style="stroke:#000000;stroke-width:5.76"/>
	<line x1="390.80" y1="2489.19" x2="350.83" y2="2489.19" style="stroke:#000000;stroke-width:5.76"/>
	<text x="300.72" y="2489.19" style="font-family:'Helvetica';font-size:99.99px;fill:#000000" transform="rotate(-90 300.72,2489.19)" text-anchor="middle">0</text>
	<line x1="390.80" y1="1714.24" x2="350.83" y2="1714.24" style="stroke:#000000;stroke-width:5.76"/>
	<text x="300.72" y="1714.24" style="font-family:'Helvetica';font-size:99.99px;fill:#000000" transform="rotate(-90 300.72,1714.24)" text-anchor="middle">2.0e-04</text>
	<line x1="390.80" y1="939.17" x2="350.83" y2="939.17" style="stroke:#000000;stroke-width:5.76"/>
	<text x="300.72" y="939.17" style="font-family:'Helvetica';font-size:99.99px;fill:#000000" transform="rotate(-90 300.72,939.17)" text-anchor="middle">4.0e-04</text>
	<line x1="390.80" y1="164.22" x2="350.83" y2="164.22" style="stroke:#000000;stroke-width:5.76"/>
	<text x="300.72" y="164.22" style="font-family:'Helvetica';font-size:99.99px;fill:#000000" transform="rotate(-90 300.72,164.22)" text-anchor="middle">6.0e-04</text>
	<text x="190.71" y="1294.96" style="font-family:'Helvetica';font-size:99.99px;fill:#000000" transform="rotate(-90 190.71,1294.96)" text-anchor="middle">Density</text>
	<line x1="390.80" y1="2489.19" x2="3859.02" y2="2489.19" style="stroke:#000000;stroke-width:5.76"/>
	<line x1="807.72" y1="2489.19" x2="807.72" y2="2529.16" style="stroke:#000000;stroke-width:5.76"/>
	<text x="807.72" y="2619.14" style="font-family:'Helvetica';font-size:99.99px;fill:#000000" text-anchor="middle">-2000</text>
	<line x1="1554.67" y1="2489.19" x2="1554.67" y2="2529.16" style="stroke:#000000;stroke-width:5.76"/>
	<text x="1554.67" y="2619.14" style="font-family:'Helvetica';font-size:99.99px;fill:#000000" text-anchor="middle">-1000</text>
	<line x1="2301.75" y1="2489.19" x2="2301.75" y2="2529.16" style="stroke:#000000;stroke-width:5.76"/>
	<text x="2301.75" y="2619.14" style="font-family:'Helvetica';font-size:99.99px;fill:#000000" text-anchor="middle">0</text>
	<line x1="3048.70" y1="2489.19" x2="3048.70" y2="2529.16" style="stroke:#000000;stroke-width:5.76"/>
	<text x="3048.70" y="2619.14" style="font-family:'Helvetica';font-size:99.99px;fill:#000000" text-anchor="middle">1000</text>
	<line x1="3795.66" y1="2489.19" x2="3795.66" y2="2529.16" style="stroke:#000000;stroke-width:5.76"/>
	<text x="3795.66" y="2619.14" style="font-family:'Helvetica';font-size:99.99px;fill:#000000" text-anchor="middle">2000</text>
	<text x="2124.91" y="2729.16" style="font-family:'Helvetica';font-size:99.99px;fill:#000000" text-anchor="middle">Residuals</text>
</svg>
