<?xml version="1.0" encoding="UTF-8" standalone="no"?>
<!-- This is a Stata 16.1 generated SVG file (http://www.stata.com) -->

<svg version="1.1" width="600px" height="436px" viewBox="0 0 3960 2880" xmlns="http://www.w3.org/2000/svg" xmlns:xlink="http://www.w3.org/1999/xlink">
	<desc>Stata Graph - Graph</desc>
	<rect x="0" y="0" width="3960" height="2880" style="fill:#EAF2F3;stroke:none"/>
	<rect x="0.00" y="0.00" width="3959.88" height="2880.00" style="fill:#EAF2F3"/>
	<rect x="2.88" y="2.88" width="3954.12" height="2874.24" style="fill:none;stroke:#EAF2F3;stroke-width:5.76"/>
	<rect x="390.80" y="100.86" width="3468.22" height="2388.33" style="fill:#FFFFFF"/>
	<rect x="393.68" y="103.74" width="3462.46" height="2382.57" style="fill:none;stroke:#FFFFFF;stroke-width:5.76"/>
	<circle cx="666.52" cy="2425.95" r="26.35" style="fill:#1A476F"/>
	<circle cx="666.52" cy="2425.95" r="22.03" style="fill:none;stroke:#1A476F;stroke-width:8.64"/>
	<circle cx="809.70" cy="2130.18" r="26.35" style="fill:#1A476F"/>
	<circle cx="809.70" cy="2130.18" r="22.03" style="fill:none;stroke:#1A476F;stroke-width:8.64"/>
	<circle cx="899.41" cy="2024.86" r="26.35" style="fill:#1A476F"/>
	<circle cx="899.41" cy="2024.86" r="22.03" style="fill:none;stroke:#1A476F;stroke-width:8.64"/>
	<circle cx="966.24" cy="1949.49" r="26.35" style="fill:#1A476F"/>
	<circle cx="966.24" cy="1949.49" r="22.03" style="fill:none;stroke:#1A476F;stroke-width:8.64"/>
	<circle cx="1020.07" cy="1916.08" r="26.35" style="fill:#1A476F"/>
	<circle cx="1020.07" cy="1916.08" r="22.03" style="fill:none;stroke:#1A476F;stroke-width:8.64"/>
	<circle cx="1065.61" cy="1891.95" r="26.35" style="fill:#1A476F"/>
	<circle cx="1065.61" cy="1891.95" r="22.03" style="fill:none;stroke:#1A476F;stroke-width:8.64"/>
	<circle cx="1105.21" cy="1887.74" r="26.35" style="fill:#1A476F"/>
	<circle cx="1105.21" cy="1887.74" r="22.03" style="fill:none;stroke:#1A476F;stroke-width:8.64"/>
	<circle cx="1140.48" cy="1860.27" r="26.35" style="fill:#1A476F"/>
	<circle cx="1140.48" cy="1860.27" r="22.03" style="fill:none;stroke:#1A476F;stroke-width:8.64"/>
	<circle cx="1172.28" cy="1856.06" r="26.35" style="fill:#1A476F"/>
	<circle cx="1172.28" cy="1856.06" r="22.03" style="fill:none;stroke:#1A476F;stroke-width:8.64"/>
	<circle cx="1201.37" cy="1832.18" r="26.35" style="fill:#1A476F"/>
	<circle cx="1201.37" cy="1832.18" r="22.03" style="fill:none;stroke:#1A476F;stroke-width:8.64"/>
	<circle cx="1228.34" cy="1814.97" r="26.35" style="fill:#1A476F"/>
	<circle cx="1228.34" cy="1814.97" r="22.03" style="fill:none;stroke:#1A476F;stroke-width:8.64"/>
	<circle cx="1253.34" cy="1792.45" r="26.35" style="fill:#1A476F"/>
	<circle cx="1253.34" cy="1792.45" r="22.03" style="fill:none;stroke:#1A476F;stroke-width:8.64"/>
	<circle cx="1276.73" cy="1789.23" r="26.35" style="fill:#1A476F"/>
	<circle cx="1276.73" cy="1789.23" r="22.03" style="fill:none;stroke:#1A476F;stroke-width:8.64"/>
	<circle cx="1298.88" cy="1740.60" r="26.35" style="fill:#1A476F"/>
	<circle cx="1298.88" cy="1740.60" r="22.03" style="fill:none;stroke:#1A476F;stroke-width:8.64"/>
	<circle cx="1319.79" cy="1730.20" r="26.35" style="fill:#1A476F"/>
	<circle cx="1319.79" cy="1730.20" r="22.03" style="fill:none;stroke:#1A476F;stroke-width:8.64"/>
	<circle cx="1339.72" cy="1724.39" r="26.35" style="fill:#1A476F"/>
	<circle cx="1339.72" cy="1724.39" r="22.03" style="fill:none;stroke:#1A476F;stroke-width:8.64"/>
	<circle cx="1358.65" cy="1719.19" r="26.35" style="fill:#1A476F"/>
	<circle cx="1358.65" cy="1719.19" r="22.03" style="fill:none;stroke:#1A476F;stroke-width:8.64"/>
	<circle cx="1376.84" cy="1719.19" r="26.35" style="fill:#1A476F"/>
	<circle cx="1376.84" cy="1719.19" r="22.03" style="fill:none;stroke:#1A476F;stroke-width:8.64"/>
	<circle cx="1394.29" cy="1717.58" r="26.35" style="fill:#1A476F"/>
	<circle cx="1394.29" cy="1717.58" r="22.03" style="fill:none;stroke:#1A476F;stroke-width:8.64"/>
	<circle cx="1411.00" cy="1714.24" r="26.35" style="fill:#1A476F"/>
	<circle cx="1411.00" cy="1714.24" r="22.03" style="fill:none;stroke:#1A476F;stroke-width:8.64"/>
	<circle cx="1427.21" cy="1710.15" r="26.35" style="fill:#1A476F"/>
	<circle cx="1427.21" cy="1710.15" r="22.03" style="fill:none;stroke:#1A476F;stroke-width:8.64"/>
	<circle cx="1442.92" cy="1685.65" r="26.35" style="fill:#1A476F"/>
	<circle cx="1442.92" cy="1685.65" r="22.03" style="fill:none;stroke:#1A476F;stroke-width:8.64"/>
	<circle cx="1458.02" cy="1645.43" r="26.35" style="fill:#1A476F"/>
	<circle cx="1458.02" cy="1645.43" r="22.03" style="fill:none;stroke:#1A476F;stroke-width:8.64"/>
	<circle cx="1472.75" cy="1643.82" r="26.35" style="fill:#1A476F"/>
	<circle cx="1472.75" cy="1643.82" r="22.03" style="fill:none;stroke:#1A476F;stroke-width:8.64"/>
	<circle cx="1486.98" cy="1640.23" r="26.35" style="fill:#1A476F"/>
	<circle cx="1486.98" cy="1640.23" r="22.03" style="fill:none;stroke:#1A476F;stroke-width:8.64"/>
	<circle cx="1500.84" cy="1636.52" r="26.35" style="fill:#1A476F"/>
	<circle cx="1500.84" cy="1636.52" r="22.03" style="fill:none;stroke:#1A476F;stroke-width:8.64"/>
	<circle cx="1514.33" cy="1585.66" r="26.35" style="fill:#1A476F"/>
	<circle cx="1514.33" cy="1585.66" r="22.03" style="fill:none;stroke:#1A476F;stroke-width:8.64"/>
	<circle cx="1527.57" cy="1580.96" r="26.35" style="fill:#1A476F"/>
	<circle cx="1527.57" cy="1580.96" r="22.03" style="fill:none;stroke:#1A476F;stroke-width:8.64"/>
	<circle cx="1540.44" cy="1572.91" r="26.35" style="fill:#1A476F"/>
	<circle cx="1540.44" cy="1572.91" r="22.03" style="fill:none;stroke:#1A476F;stroke-width:8.64"/>
	<circle cx="1552.94" cy="1560.66" r="26.35" style="fill:#1A476F"/>
	<circle cx="1552.94" cy="1560.66" r="22.03" style="fill:none;stroke:#1A476F;stroke-width:8.64"/>
	<circle cx="1565.31" cy="1548.66" r="26.35" style="fill:#1A476F"/>
	<circle cx="1565.31" cy="1548.66" r="22.03" style="fill:none;stroke:#1A476F;stroke-width:8.64"/>
	<circle cx="1577.32" cy="1543.33" r="26.35" style="fill:#1A476F"/>
	<circle cx="1577.32" cy="1543.33" r="22.03" style="fill:none;stroke:#1A476F;stroke-width:8.64"/>
	<circle cx="1589.20" cy="1526.63" r="26.35" style="fill:#1A476F"/>
	<circle cx="1589.20" cy="1526.63" r="22.03" style="fill:none;stroke:#1A476F;stroke-width:8.64"/>
	<circle cx="1600.71" cy="1519.33" r="26.35" style="fill:#1A476F"/>
	<circle cx="1600.71" cy="1519.33" r="22.03" style="fill:none;stroke:#1A476F;stroke-width:8.64"/>
	<circle cx="1612.09" cy="1512.52" r="26.35" style="fill:#1A476F"/>
	<circle cx="1612.09" cy="1512.52" r="22.03" style="fill:none;stroke:#1A476F;stroke-width:8.64"/>
	<circle cx="1623.23" cy="1508.31" r="26.35" style="fill:#1A476F"/>
	<circle cx="1623.23" cy="1508.31" r="22.03" style="fill:none;stroke:#1A476F;stroke-width:8.64"/>
	<circle cx="1634.24" cy="1505.22" r="26.35" style="fill:#1A476F"/>
	<circle cx="1634.24" cy="1505.22" r="22.03" style="fill:none;stroke:#1A476F;stroke-width:8.64"/>
	<circle cx="1645.13" cy="1483.44" r="26.35" style="fill:#1A476F"/>
	<circle cx="1645.13" cy="1483.44" r="22.03" style="fill:none;stroke:#1A476F;stroke-width:8.64"/>
	<circle cx="1655.65" cy="1478.73" r="26.35" style="fill:#1A476F"/>
	<circle cx="1655.65" cy="1478.73" r="22.03" style="fill:none;stroke:#1A476F;stroke-width:8.64"/>
	<circle cx="1666.17" cy="1477.37" r="26.35" style="fill:#1A476F"/>
	<circle cx="1666.17" cy="1477.37" r="22.03" style="fill:none;stroke:#1A476F;stroke-width:8.64"/>
	<circle cx="1676.44" cy="1469.08" r="26.35" style="fill:#1A476F"/>
	<circle cx="1676.44" cy="1469.08" r="22.03" style="fill:none;stroke:#1A476F;stroke-width:8.64"/>
	<circle cx="1686.71" cy="1465.37" r="26.35" style="fill:#1A476F"/>
	<circle cx="1686.71" cy="1465.37" r="22.03" style="fill:none;stroke:#1A476F;stroke-width:8.64"/>
	<circle cx="1696.74" cy="1464.38" r="26.35" style="fill:#1A476F"/>
	<circle cx="1696.74" cy="1464.38" r="22.03" style="fill:none;stroke:#1A476F;stroke-width:8.64"/>
	<circle cx="1706.64" cy="1462.77" r="26.35" style="fill:#1A476F"/>
	<circle cx="1706.64" cy="1462.77" r="22.03" style="fill:none;stroke:#1A476F;stroke-width:8.64"/>
	<circle cx="1716.41" cy="1461.66" r="26.35" style="fill:#1A476F"/>
	<circle cx="1716.41" cy="1461.66" r="22.03" style="fill:none;stroke:#1A476F;stroke-width:8.64"/>
	<circle cx="1726.07" cy="1453.61" r="26.35" style="fill:#1A476F"/>
	<circle cx="1726.07" cy="1453.61" r="22.03" style="fill:none;stroke:#1A476F;stroke-width:8.64"/>
	<circle cx="1735.59" cy="1445.94" r="26.35" style="fill:#1A476F"/>
	<circle cx="1735.59" cy="1445.94" r="22.03" style="fill:none;stroke:#1A476F;stroke-width:8.64"/>
	<circle cx="1745.12" cy="1443.96" r="26.35" style="fill:#1A476F"/>
	<circle cx="1745.12" cy="1443.96" r="22.03" style="fill:none;stroke:#1A476F;stroke-width:8.64"/>
	<circle cx="1754.40" cy="1443.96" r="26.35" style="fill:#1A476F"/>
	<circle cx="1754.40" cy="1443.96" r="22.03" style="fill:none;stroke:#1A476F;stroke-width:8.64"/>
	<circle cx="1763.68" cy="1439.13" r="26.35" style="fill:#1A476F"/>
	<circle cx="1763.68" cy="1439.13" r="22.03" style="fill:none;stroke:#1A476F;stroke-width:8.64"/>
	<circle cx="1772.84" cy="1433.44" r="26.35" style="fill:#1A476F"/>
	<circle cx="1772.84" cy="1433.44" r="22.03" style="fill:none;stroke:#1A476F;stroke-width:8.64"/>
	<circle cx="1781.88" cy="1432.20" r="26.35" style="fill:#1A476F"/>
	<circle cx="1781.88" cy="1432.20" r="22.03" style="fill:none;stroke:#1A476F;stroke-width:8.64"/>
	<circle cx="1790.79" cy="1423.54" r="26.35" style="fill:#1A476F"/>
	<circle cx="1790.79" cy="1423.54" r="22.03" style="fill:none;stroke:#1A476F;stroke-width:8.64"/>
	<circle cx="1799.70" cy="1409.31" r="26.35" style="fill:#1A476F"/>
	<circle cx="1799.70" cy="1409.31" r="22.03" style="fill:none;stroke:#1A476F;stroke-width:8.64"/>
	<circle cx="1808.48" cy="1403.62" r="26.35" style="fill:#1A476F"/>
	<circle cx="1808.48" cy="1403.62" r="22.03" style="fill:none;stroke:#1A476F;stroke-width:8.64"/>
	<circle cx="1817.27" cy="1398.17" r="26.35" style="fill:#1A476F"/>
	<circle cx="1817.27" cy="1398.17" r="22.03" style="fill:none;stroke:#1A476F;stroke-width:8.64"/>
	<circle cx="1825.93" cy="1396.81" r="26.35" style="fill:#1A476F"/>
	<circle cx="1825.93" cy="1396.81" r="22.03" style="fill:none;stroke:#1A476F;stroke-width:8.64"/>
	<circle cx="1834.47" cy="1394.21" r="26.35" style="fill:#1A476F"/>
	<circle cx="1834.47" cy="1394.21" r="22.03" style="fill:none;stroke:#1A476F;stroke-width:8.64"/>
	<circle cx="1843.01" cy="1390.00" r="26.35" style="fill:#1A476F"/>
	<circle cx="1843.01" cy="1390.00" r="22.03" style="fill:none;stroke:#1A476F;stroke-width:8.64"/>
	<circle cx="1851.55" cy="1382.83" r="26.35" style="fill:#1A476F"/>
	<circle cx="1851.55" cy="1382.83" r="22.03" style="fill:none;stroke:#1A476F;stroke-width:8.64"/>
	<circle cx="1859.96" cy="1377.75" r="26.35" style="fill:#1A476F"/>
	<circle cx="1859.96" cy="1377.75" r="22.03" style="fill:none;stroke:#1A476F;stroke-width:8.64"/>
	<circle cx="1868.25" cy="1371.69" r="26.35" style="fill:#1A476F"/>
	<circle cx="1868.25" cy="1371.69" r="22.03" style="fill:none;stroke:#1A476F;stroke-width:8.64"/>
	<circle cx="1876.55" cy="1365.38" r="26.35" style="fill:#1A476F"/>
	<circle cx="1876.55" cy="1365.38" r="22.03" style="fill:none;stroke:#1A476F;stroke-width:8.64"/>
	<circle cx="1884.84" cy="1351.52" r="26.35" style="fill:#1A476F"/>
	<circle cx="1884.84" cy="1351.52" r="22.03" style="fill:none;stroke:#1A476F;stroke-width:8.64"/>
	<circle cx="1893.00" cy="1349.54" r="26.35" style="fill:#1A476F"/>
	<circle cx="1893.00" cy="1349.54" r="22.03" style="fill:none;stroke:#1A476F;stroke-width:8.64"/>
	<circle cx="1901.17" cy="1347.43" r="26.35" style="fill:#1A476F"/>
	<circle cx="1901.17" cy="1347.43" r="22.03" style="fill:none;stroke:#1A476F;stroke-width:8.64"/>
	<circle cx="1909.21" cy="1344.46" r="26.35" style="fill:#1A476F"/>
	<circle cx="1909.21" cy="1344.46" r="22.03" style="fill:none;stroke:#1A476F;stroke-width:8.64"/>
	<circle cx="1917.26" cy="1343.97" r="26.35" style="fill:#1A476F"/>
	<circle cx="1917.26" cy="1343.97" r="22.03" style="fill:none;stroke:#1A476F;stroke-width:8.64"/>
	<circle cx="1925.30" cy="1339.76" r="26.35" style="fill:#1A476F"/>
	<circle cx="1925.30" cy="1339.76" r="22.03" style="fill:none;stroke:#1A476F;stroke-width:8.64"/>
	<circle cx="1933.35" cy="1337.90" r="26.35" style="fill:#1A476F"/>
	<circle cx="1933.35" cy="1337.90" r="22.03" style="fill:none;stroke:#1A476F;stroke-width:8.64"/>
	<circle cx="1941.27" cy="1335.80" r="26.35" style="fill:#1A476F"/>
	<circle cx="1941.27" cy="1335.80" r="22.03" style="fill:none;stroke:#1A476F;stroke-width:8.64"/>
	<circle cx="1949.19" cy="1332.46" r="26.35" style="fill:#1A476F"/>
	<circle cx="1949.19" cy="1332.46" r="22.03" style="fill:none;stroke:#1A476F;stroke-width:8.64"/>
	<circle cx="1956.98" cy="1330.60" r="26.35" style="fill:#1A476F"/>
	<circle cx="1956.98" cy="1330.60" r="22.03" style="fill:none;stroke:#1A476F;stroke-width:8.64"/>
	<circle cx="1964.90" cy="1291.87" r="26.35" style="fill:#1A476F"/>
	<circle cx="1964.90" cy="1291.87" r="22.03" style="fill:none;stroke:#1A476F;stroke-width:8.64"/>
	<circle cx="1972.70" cy="1290.13" r="26.35" style="fill:#1A476F"/>
	<circle cx="1972.70" cy="1290.13" r="22.03" style="fill:none;stroke:#1A476F;stroke-width:8.64"/>
	<circle cx="1980.49" cy="1286.92" r="26.35" style="fill:#1A476F"/>
	<circle cx="1980.49" cy="1286.92" r="22.03" style="fill:none;stroke:#1A476F;stroke-width:8.64"/>
	<circle cx="1988.17" cy="1284.32" r="26.35" style="fill:#1A476F"/>
	<circle cx="1988.17" cy="1284.32" r="22.03" style="fill:none;stroke:#1A476F;stroke-width:8.64"/>
	<circle cx="1995.96" cy="1278.62" r="26.35" style="fill:#1A476F"/>
	<circle cx="1995.96" cy="1278.62" r="22.03" style="fill:none;stroke:#1A476F;stroke-width:8.64"/>
	<circle cx="2003.64" cy="1277.51" r="26.35" style="fill:#1A476F"/>
	<circle cx="2003.64" cy="1277.51" r="22.03" style="fill:none;stroke:#1A476F;stroke-width:8.64"/>
	<circle cx="2011.31" cy="1277.02" r="26.35" style="fill:#1A476F"/>
	<circle cx="2011.31" cy="1277.02" r="22.03" style="fill:none;stroke:#1A476F;stroke-width:8.64"/>
	<circle cx="2018.98" cy="1277.02" r="26.35" style="fill:#1A476F"/>
	<circle cx="2018.98" cy="1277.02" r="22.03" style="fill:none;stroke:#1A476F;stroke-width:8.64"/>
	<circle cx="2026.65" cy="1266.74" r="26.35" style="fill:#1A476F"/>
	<circle cx="2026.65" cy="1266.74" r="22.03" style="fill:none;stroke:#1A476F;stroke-width:8.64"/>
	<circle cx="2034.20" cy="1260.19" r="26.35" style="fill:#1A476F"/>
	<circle cx="2034.20" cy="1260.19" r="22.03" style="fill:none;stroke:#1A476F;stroke-width:8.64"/>
	<circle cx="2041.88" cy="1259.94" r="26.35" style="fill:#1A476F"/>
	<circle cx="2041.88" cy="1259.94" r="22.03" style="fill:none;stroke:#1A476F;stroke-width:8.64"/>
	<circle cx="2049.42" cy="1259.07" r="26.35" style="fill:#1A476F"/>
	<circle cx="2049.42" cy="1259.07" r="22.03" style="fill:none;stroke:#1A476F;stroke-width:8.64"/>
	<circle cx="2056.97" cy="1253.63" r="26.35" style="fill:#1A476F"/>
	<circle cx="2056.97" cy="1253.63" r="22.03" style="fill:none;stroke:#1A476F;stroke-width:8.64"/>
	<circle cx="2064.64" cy="1249.42" r="26.35" style="fill:#1A476F"/>
	<circle cx="2064.64" cy="1249.42" r="22.03" style="fill:none;stroke:#1A476F;stroke-width:8.64"/>
	<circle cx="2072.19" cy="1246.70" r="26.35" style="fill:#1A476F"/>
	<circle cx="2072.19" cy="1246.70" r="22.03" style="fill:none;stroke:#1A476F;stroke-width:8.64"/>
	<circle cx="2079.74" cy="1244.59" r="26.35" style="fill:#1A476F"/>
	<circle cx="2079.74" cy="1244.59" r="22.03" style="fill:none;stroke:#1A476F;stroke-width:8.64"/>
	<circle cx="2087.29" cy="1225.66" r="26.35" style="fill:#1A476F"/>
	<circle cx="2087.29" cy="1225.66" r="22.03" style="fill:none;stroke:#1A476F;stroke-width:8.64"/>
	<circle cx="2094.72" cy="1215.26" r="26.35" style="fill:#1A476F"/>
	<circle cx="2094.72" cy="1215.26" r="22.03" style="fill:none;stroke:#1A476F;stroke-width:8.64"/>
	<circle cx="2102.26" cy="1215.02" r="26.35" style="fill:#1A476F"/>
	<circle cx="2102.26" cy="1215.02" r="22.03" style="fill:none;stroke:#1A476F;stroke-width:8.64"/>
	<circle cx="2109.81" cy="1206.35" r="26.35" style="fill:#1A476F"/>
	<circle cx="2109.81" cy="1206.35" r="22.03" style="fill:none;stroke:#1A476F;stroke-width:8.64"/>
	<circle cx="2117.36" cy="1204.25" r="26.35" style="fill:#1A476F"/>
	<circle cx="2117.36" cy="1204.25" r="22.03" style="fill:none;stroke:#1A476F;stroke-width:8.64"/>
	<circle cx="2124.91" cy="1196.08" r="26.35" style="fill:#1A476F"/>
	<circle cx="2124.91" cy="1196.08" r="22.03" style="fill:none;stroke:#1A476F;stroke-width:8.64"/>
	<circle cx="2132.34" cy="1190.39" r="26.35" style="fill:#1A476F"/>
	<circle cx="2132.34" cy="1190.39" r="22.03" style="fill:none;stroke:#1A476F;stroke-width:8.64"/>
	<circle cx="2139.89" cy="1189.52" r="26.35" style="fill:#1A476F"/>
	<circle cx="2139.89" cy="1189.52" r="22.03" style="fill:none;stroke:#1A476F;stroke-width:8.64"/>
	<circle cx="2147.43" cy="1186.92" r="26.35" style="fill:#1A476F"/>
	<circle cx="2147.43" cy="1186.92" r="22.03" style="fill:none;stroke:#1A476F;stroke-width:8.64"/>
	<circle cx="2154.98" cy="1186.92" r="26.35" style="fill:#1A476F"/>
	<circle cx="2154.98" cy="1186.92" r="22.03" style="fill:none;stroke:#1A476F;stroke-width:8.64"/>
	<circle cx="2162.53" cy="1179.62" r="26.35" style="fill:#1A476F"/>
	<circle cx="2162.53" cy="1179.62" r="22.03" style="fill:none;stroke:#1A476F;stroke-width:8.64"/>
	<circle cx="2170.08" cy="1169.23" r="26.35" style="fill:#1A476F"/>
	<circle cx="2170.08" cy="1169.23" r="22.03" style="fill:none;stroke:#1A476F;stroke-width:8.64"/>
	<circle cx="2177.63" cy="1168.36" r="26.35" style="fill:#1A476F"/>
	<circle cx="2177.63" cy="1168.36" r="22.03" style="fill:none;stroke:#1A476F;stroke-width:8.64"/>
	<circle cx="2185.18" cy="1167.12" r="26.35" style="fill:#1A476F"/>
	<circle cx="2185.18" cy="1167.12" r="22.03" style="fill:none;stroke:#1A476F;stroke-width:8.64"/>
	<circle cx="2192.73" cy="1165.51" r="26.35" style="fill:#1A476F"/>
	<circle cx="2192.73" cy="1165.51" r="22.03" style="fill:none;stroke:#1A476F;stroke-width:8.64"/>
	<circle cx="2200.28" cy="1154.50" r="26.35" style="fill:#1A476F"/>
	<circle cx="2200.28" cy="1154.50" r="22.03" style="fill:none;stroke:#1A476F;stroke-width:8.64"/>
	<circle cx="2207.95" cy="1145.96" r="26.35" style="fill:#1A476F"/>
	<circle cx="2207.95" cy="1145.96" r="22.03" style="fill:none;stroke:#1A476F;stroke-width:8.64"/>
	<circle cx="2215.50" cy="1143.86" r="26.35" style="fill:#1A476F"/>
	<circle cx="2215.50" cy="1143.86" r="22.03" style="fill:none;stroke:#1A476F;stroke-width:8.64"/>
	<circle cx="2223.17" cy="1142.25" r="26.35" style="fill:#1A476F"/>
	<circle cx="2223.17" cy="1142.25" r="22.03" style="fill:none;stroke:#1A476F;stroke-width:8.64"/>
	<circle cx="2230.72" cy="1118.86" r="26.35" style="fill:#1A476F"/>
	<circle cx="2230.72" cy="1118.86" r="22.03" style="fill:none;stroke:#1A476F;stroke-width:8.64"/>
	<circle cx="2238.39" cy="1116.26" r="26.35" style="fill:#1A476F"/>
	<circle cx="2238.39" cy="1116.26" r="22.03" style="fill:none;stroke:#1A476F;stroke-width:8.64"/>
	<circle cx="2246.06" cy="1116.26" r="26.35" style="fill:#1A476F"/>
	<circle cx="2246.06" cy="1116.26" r="22.03" style="fill:none;stroke:#1A476F;stroke-width:8.64"/>
	<circle cx="2253.86" cy="1097.57" r="26.35" style="fill:#1A476F"/>
	<circle cx="2253.86" cy="1097.57" r="22.03" style="fill:none;stroke:#1A476F;stroke-width:8.64"/>
	<circle cx="2261.53" cy="1094.36" r="26.35" style="fill:#1A476F"/>
	<circle cx="2261.53" cy="1094.36" r="22.03" style="fill:none;stroke:#1A476F;stroke-width:8.64"/>
	<circle cx="2269.33" cy="1091.76" r="26.35" style="fill:#1A476F"/>
	<circle cx="2269.33" cy="1091.76" r="22.03" style="fill:none;stroke:#1A476F;stroke-width:8.64"/>
	<circle cx="2277.12" cy="1091.14" r="26.35" style="fill:#1A476F"/>
	<circle cx="2277.12" cy="1091.14" r="22.03" style="fill:none;stroke:#1A476F;stroke-width:8.64"/>
	<circle cx="2284.92" cy="1083.59" r="26.35" style="fill:#1A476F"/>
	<circle cx="2284.92" cy="1083.59" r="22.03" style="fill:none;stroke:#1A476F;stroke-width:8.64"/>
	<circle cx="2292.72" cy="1077.40" r="26.35" style="fill:#1A476F"/>
	<circle cx="2292.72" cy="1077.40" r="22.03" style="fill:none;stroke:#1A476F;stroke-width:8.64"/>
	<circle cx="2300.64" cy="1063.79" r="26.35" style="fill:#1A476F"/>
	<circle cx="2300.64" cy="1063.79" r="22.03" style="fill:none;stroke:#1A476F;stroke-width:8.64"/>
	<circle cx="2308.56" cy="1061.68" r="26.35" style="fill:#1A476F"/>
	<circle cx="2308.56" cy="1061.68" r="22.03" style="fill:none;stroke:#1A476F;stroke-width:8.64"/>
	<circle cx="2316.48" cy="1053.02" r="26.35" style="fill:#1A476F"/>
	<circle cx="2316.48" cy="1053.02" r="22.03" style="fill:none;stroke:#1A476F;stroke-width:8.64"/>
	<circle cx="2324.40" cy="1049.93" r="26.35" style="fill:#1A476F"/>
	<circle cx="2324.40" cy="1049.93" r="22.03" style="fill:none;stroke:#1A476F;stroke-width:8.64"/>
	<circle cx="2332.44" cy="1049.93" r="26.35" style="fill:#1A476F"/>
	<circle cx="2332.44" cy="1049.93" r="22.03" style="fill:none;stroke:#1A476F;stroke-width:8.64"/>
	<circle cx="2340.48" cy="1049.56" r="26.35" style="fill:#1A476F"/>
	<circle cx="2340.48" cy="1049.56" r="22.03" style="fill:none;stroke:#1A476F;stroke-width:8.64"/>
	<circle cx="2348.53" cy="1049.56" r="26.35" style="fill:#1A476F"/>
	<circle cx="2348.53" cy="1049.56" r="22.03" style="fill:none;stroke:#1A476F;stroke-width:8.64"/>
	<circle cx="2356.70" cy="1039.41" r="26.35" style="fill:#1A476F"/>
	<circle cx="2356.70" cy="1039.41" r="22.03" style="fill:none;stroke:#1A476F;stroke-width:8.64"/>
	<circle cx="2364.99" cy="1028.39" r="26.35" style="fill:#1A476F"/>
	<circle cx="2364.99" cy="1028.39" r="22.03" style="fill:none;stroke:#1A476F;stroke-width:8.64"/>
	<circle cx="2373.15" cy="1027.40" r="26.35" style="fill:#1A476F"/>
	<circle cx="2373.15" cy="1027.40" r="22.03" style="fill:none;stroke:#1A476F;stroke-width:8.64"/>
	<circle cx="2381.45" cy="1025.55" r="26.35" style="fill:#1A476F"/>
	<circle cx="2381.45" cy="1025.55" r="22.03" style="fill:none;stroke:#1A476F;stroke-width:8.64"/>
	<circle cx="2389.86" cy="1024.81" r="26.35" style="fill:#1A476F"/>
	<circle cx="2389.86" cy="1024.81" r="22.03" style="fill:none;stroke:#1A476F;stroke-width:8.64"/>
	<circle cx="2398.28" cy="1024.81" r="26.35" style="fill:#1A476F"/>
	<circle cx="2398.28" cy="1024.81" r="22.03" style="fill:none;stroke:#1A476F;stroke-width:8.64"/>
	<circle cx="2406.69" cy="1006.49" r="26.35" style="fill:#1A476F"/>
	<circle cx="2406.69" cy="1006.49" r="22.03" style="fill:none;stroke:#1A476F;stroke-width:8.64"/>
	<circle cx="2415.23" cy="1004.14" r="26.35" style="fill:#1A476F"/>
	<circle cx="2415.23" cy="1004.14" r="22.03" style="fill:none;stroke:#1A476F;stroke-width:8.64"/>
	<circle cx="2423.77" cy="1002.28" r="26.35" style="fill:#1A476F"/>
	<circle cx="2423.77" cy="1002.28" r="22.03" style="fill:none;stroke:#1A476F;stroke-width:8.64"/>
	<circle cx="2432.43" cy="994.36" r="26.35" style="fill:#1A476F"/>
	<circle cx="2432.43" cy="994.36" r="22.03" style="fill:none;stroke:#1A476F;stroke-width:8.64"/>
	<circle cx="2441.22" cy="984.34" r="26.35" style="fill:#1A476F"/>
	<circle cx="2441.22" cy="984.34" r="22.03" style="fill:none;stroke:#1A476F;stroke-width:8.64"/>
	<circle cx="2450.00" cy="981.12" r="26.35" style="fill:#1A476F"/>
	<circle cx="2450.00" cy="981.12" r="22.03" style="fill:none;stroke:#1A476F;stroke-width:8.64"/>
	<circle cx="2458.91" cy="973.57" r="26.35" style="fill:#1A476F"/>
	<circle cx="2458.91" cy="973.57" r="22.03" style="fill:none;stroke:#1A476F;stroke-width:8.64"/>
	<circle cx="2467.95" cy="973.20" r="26.35" style="fill:#1A476F"/>
	<circle cx="2467.95" cy="973.20" r="22.03" style="fill:none;stroke:#1A476F;stroke-width:8.64"/>
	<circle cx="2476.98" cy="968.37" r="26.35" style="fill:#1A476F"/>
	<circle cx="2476.98" cy="968.37" r="22.03" style="fill:none;stroke:#1A476F;stroke-width:8.64"/>
	<circle cx="2486.14" cy="958.23" r="26.35" style="fill:#1A476F"/>
	<circle cx="2486.14" cy="958.23" r="22.03" style="fill:none;stroke:#1A476F;stroke-width:8.64"/>
	<circle cx="2495.30" cy="950.18" r="26.35" style="fill:#1A476F"/>
	<circle cx="2495.30" cy="950.18" r="22.03" style="fill:none;stroke:#1A476F;stroke-width:8.64"/>
	<circle cx="2504.70" cy="948.33" r="26.35" style="fill:#1A476F"/>
	<circle cx="2504.70" cy="948.33" r="22.03" style="fill:none;stroke:#1A476F;stroke-width:8.64"/>
	<circle cx="2514.11" cy="945.73" r="26.35" style="fill:#1A476F"/>
	<circle cx="2514.11" cy="945.73" r="22.03" style="fill:none;stroke:#1A476F;stroke-width:8.64"/>
	<circle cx="2523.63" cy="943.38" r="26.35" style="fill:#1A476F"/>
	<circle cx="2523.63" cy="943.38" r="22.03" style="fill:none;stroke:#1A476F;stroke-width:8.64"/>
	<circle cx="2533.29" cy="935.70" r="26.35" style="fill:#1A476F"/>
	<circle cx="2533.29" cy="935.70" r="22.03" style="fill:none;stroke:#1A476F;stroke-width:8.64"/>
	<circle cx="2543.06" cy="917.26" r="26.35" style="fill:#1A476F"/>
	<circle cx="2543.06" cy="917.26" r="22.03" style="fill:none;stroke:#1A476F;stroke-width:8.64"/>
	<circle cx="2552.96" cy="907.61" r="26.35" style="fill:#1A476F"/>
	<circle cx="2552.96" cy="907.61" r="22.03" style="fill:none;stroke:#1A476F;stroke-width:8.64"/>
	<circle cx="2563.11" cy="904.52" r="26.35" style="fill:#1A476F"/>
	<circle cx="2563.11" cy="904.52" r="22.03" style="fill:none;stroke:#1A476F;stroke-width:8.64"/>
	<circle cx="2573.26" cy="890.78" r="26.35" style="fill:#1A476F"/>
	<circle cx="2573.26" cy="890.78" r="22.03" style="fill:none;stroke:#1A476F;stroke-width:8.64"/>
	<circle cx="2583.53" cy="882.12" r="26.35" style="fill:#1A476F"/>
	<circle cx="2583.53" cy="882.12" r="22.03" style="fill:none;stroke:#1A476F;stroke-width:8.64"/>
	<circle cx="2594.05" cy="877.91" r="26.35" style="fill:#1A476F"/>
	<circle cx="2594.05" cy="877.91" r="22.03" style="fill:none;stroke:#1A476F;stroke-width:8.64"/>
	<circle cx="2604.69" cy="871.72" r="26.35" style="fill:#1A476F"/>
	<circle cx="2604.69" cy="871.72" r="22.03" style="fill:none;stroke:#1A476F;stroke-width:8.64"/>
	<circle cx="2615.46" cy="864.17" r="26.35" style="fill:#1A476F"/>
	<circle cx="2615.46" cy="864.17" r="22.03" style="fill:none;stroke:#1A476F;stroke-width:8.64"/>
	<circle cx="2626.47" cy="859.10" r="26.35" style="fill:#1A476F"/>
	<circle cx="2626.47" cy="859.10" r="22.03" style="fill:none;stroke:#1A476F;stroke-width:8.64"/>
	<circle cx="2637.61" cy="845.24" r="26.35" style="fill:#1A476F"/>
	<circle cx="2637.61" cy="845.24" r="22.03" style="fill:none;stroke:#1A476F;stroke-width:8.64"/>
	<circle cx="2648.99" cy="830.39" r="26.35" style="fill:#1A476F"/>
	<circle cx="2648.99" cy="830.39" r="22.03" style="fill:none;stroke:#1A476F;stroke-width:8.64"/>
	<circle cx="2660.63" cy="830.02" r="26.35" style="fill:#1A476F"/>
	<circle cx="2660.63" cy="830.02" r="22.03" style="fill:none;stroke:#1A476F;stroke-width:8.64"/>
	<circle cx="2672.38" cy="827.91" r="26.35" style="fill:#1A476F"/>
	<circle cx="2672.38" cy="827.91" r="22.03" style="fill:none;stroke:#1A476F;stroke-width:8.64"/>
	<circle cx="2684.39" cy="817.77" r="26.35" style="fill:#1A476F"/>
	<circle cx="2684.39" cy="817.77" r="22.03" style="fill:none;stroke:#1A476F;stroke-width:8.64"/>
	<circle cx="2696.76" cy="817.52" r="26.35" style="fill:#1A476F"/>
	<circle cx="2696.76" cy="817.52" r="22.03" style="fill:none;stroke:#1A476F;stroke-width:8.64"/>
	<circle cx="2709.38" cy="817.52" r="26.35" style="fill:#1A476F"/>
	<circle cx="2709.38" cy="817.52" r="22.03" style="fill:none;stroke:#1A476F;stroke-width:8.64"/>
	<circle cx="2722.25" cy="816.40" r="26.35" style="fill:#1A476F"/>
	<circle cx="2722.25" cy="816.40" r="22.03" style="fill:none;stroke:#1A476F;stroke-width:8.64"/>
	<circle cx="2735.37" cy="816.40" r="26.35" style="fill:#1A476F"/>
	<circle cx="2735.37" cy="816.40" r="22.03" style="fill:none;stroke:#1A476F;stroke-width:8.64"/>
	<circle cx="2748.86" cy="801.55" r="26.35" style="fill:#1A476F"/>
	<circle cx="2748.86" cy="801.55" r="22.03" style="fill:none;stroke:#1A476F;stroke-width:8.64"/>
	<circle cx="2762.72" cy="793.14" r="26.35" style="fill:#1A476F"/>
	<circle cx="2762.72" cy="793.14" r="22.03" style="fill:none;stroke:#1A476F;stroke-width:8.64"/>
	<circle cx="2777.07" cy="782.74" r="26.35" style="fill:#1A476F"/>
	<circle cx="2777.07" cy="782.74" r="22.03" style="fill:none;stroke:#1A476F;stroke-width:8.64"/>
	<circle cx="2791.68" cy="782.25" r="26.35" style="fill:#1A476F"/>
	<circle cx="2791.68" cy="782.25" r="22.03" style="fill:none;stroke:#1A476F;stroke-width:8.64"/>
	<circle cx="2806.90" cy="781.63" r="26.35" style="fill:#1A476F"/>
	<circle cx="2806.90" cy="781.63" r="22.03" style="fill:none;stroke:#1A476F;stroke-width:8.64"/>
	<circle cx="2822.49" cy="772.72" r="26.35" style="fill:#1A476F"/>
	<circle cx="2822.49" cy="772.72" r="22.03" style="fill:none;stroke:#1A476F;stroke-width:8.64"/>
	<circle cx="2838.70" cy="766.53" r="26.35" style="fill:#1A476F"/>
	<circle cx="2838.70" cy="766.53" r="22.03" style="fill:none;stroke:#1A476F;stroke-width:8.64"/>
	<circle cx="2855.41" cy="761.46" r="26.35" style="fill:#1A476F"/>
	<circle cx="2855.41" cy="761.46" r="22.03" style="fill:none;stroke:#1A476F;stroke-width:8.64"/>
	<circle cx="2872.86" cy="752.92" r="26.35" style="fill:#1A476F"/>
	<circle cx="2872.86" cy="752.92" r="22.03" style="fill:none;stroke:#1A476F;stroke-width:8.64"/>
	<circle cx="2891.05" cy="746.85" r="26.35" style="fill:#1A476F"/>
	<circle cx="2891.05" cy="746.85" r="22.03" style="fill:none;stroke:#1A476F;stroke-width:8.64"/>
	<circle cx="2909.98" cy="742.77" r="26.35" style="fill:#1A476F"/>
	<circle cx="2909.98" cy="742.77" r="22.03" style="fill:none;stroke:#1A476F;stroke-width:8.64"/>
	<circle cx="2929.91" cy="740.05" r="26.35" style="fill:#1A476F"/>
	<circle cx="2929.91" cy="740.05" r="22.03" style="fill:none;stroke:#1A476F;stroke-width:8.64"/>
	<circle cx="2950.82" cy="708.12" r="26.35" style="fill:#1A476F"/>
	<circle cx="2950.82" cy="708.12" r="22.03" style="fill:none;stroke:#1A476F;stroke-width:8.64"/>
	<circle cx="2972.97" cy="705.03" r="26.35" style="fill:#1A476F"/>
	<circle cx="2972.97" cy="705.03" r="22.03" style="fill:none;stroke:#1A476F;stroke-width:8.64"/>
	<circle cx="2996.36" cy="694.01" r="26.35" style="fill:#1A476F"/>
	<circle cx="2996.36" cy="694.01" r="22.03" style="fill:none;stroke:#1A476F;stroke-width:8.64"/>
	<circle cx="3021.48" cy="693.15" r="26.35" style="fill:#1A476F"/>
	<circle cx="3021.48" cy="693.15" r="22.03" style="fill:none;stroke:#1A476F;stroke-width:8.64"/>
	<circle cx="3048.33" cy="681.02" r="26.35" style="fill:#1A476F"/>
	<circle cx="3048.33" cy="681.02" r="22.03" style="fill:none;stroke:#1A476F;stroke-width:8.64"/>
	<circle cx="3077.41" cy="666.29" r="26.35" style="fill:#1A476F"/>
	<circle cx="3077.41" cy="666.29" r="22.03" style="fill:none;stroke:#1A476F;stroke-width:8.64"/>
	<circle cx="3109.22" cy="661.59" r="26.35" style="fill:#1A476F"/>
	<circle cx="3109.22" cy="661.59" r="22.03" style="fill:none;stroke:#1A476F;stroke-width:8.64"/>
	<circle cx="3144.49" cy="646.99" r="26.35" style="fill:#1A476F"/>
	<circle cx="3144.49" cy="646.99" r="22.03" style="fill:none;stroke:#1A476F;stroke-width:8.64"/>
	<circle cx="3184.09" cy="620.50" r="26.35" style="fill:#1A476F"/>
	<circle cx="3184.09" cy="620.50" r="22.03" style="fill:none;stroke:#1A476F;stroke-width:8.64"/>
	<circle cx="3229.63" cy="619.76" r="26.35" style="fill:#1A476F"/>
	<circle cx="3229.63" cy="619.76" r="22.03" style="fill:none;stroke:#1A476F;stroke-width:8.64"/>
	<circle cx="3283.58" cy="600.33" r="26.35" style="fill:#1A476F"/>
	<circle cx="3283.58" cy="600.33" r="22.03" style="fill:none;stroke:#1A476F;stroke-width:8.64"/>
	<circle cx="3350.41" cy="551.45" r="26.35" style="fill:#1A476F"/>
	<circle cx="3350.41" cy="551.45" r="22.03" style="fill:none;stroke:#1A476F;stroke-width:8.64"/>
	<circle cx="3440.13" cy="509.25" r="26.35" style="fill:#1A476F"/>
	<circle cx="3440.13" cy="509.25" r="22.03" style="fill:none;stroke:#1A476F;stroke-width:8.64"/>
	<circle cx="3583.18" cy="365.69" r="26.35" style="fill:#1A476F"/>
	<circle cx="3583.18" cy="365.69" r="22.03" style="fill:none;stroke:#1A476F;stroke-width:8.64"/>
	<path d=" M666.52 2124.36 L3583.18 297.38" stroke-linejoin="round" style="fill:none;stroke:#2D6D66;stroke-width:8.64"/>
	<line x1="390.80" y1="2489.19" x2="390.80" y2="100.86" style="stroke:#000000;stroke-width:5.76"/>
	<line x1="390.80" y1="2257.39" x2="350.83" y2="2257.39" style="stroke:#000000;stroke-width:5.76"/>
	<text x="300.72" y="2257.39" style="font-family:'Helvetica';font-size:99.99px;fill:#000000" transform="rotate(-90 300.72,2257.39)" text-anchor="middle">-2000</text>
	<line x1="390.80" y1="1734.04" x2="350.83" y2="1734.04" style="stroke:#000000;stroke-width:5.76"/>
	<text x="300.72" y="1734.04" style="font-family:'Helvetica';font-size:99.99px;fill:#000000" transform="rotate(-90 300.72,1734.04)" text-anchor="middle">-1000</text>
	<line x1="390.80" y1="1210.81" x2="350.83" y2="1210.81" style="stroke:#000000;stroke-width:5.76"/>
	<text x="300.72" y="1210.81" style="font-family:'Helvetica';font-size:99.99px;fill:#000000" transform="rotate(-90 300.72,1210.81)" text-anchor="middle">0</text>
	<line x1="390.80" y1="687.45" x2="350.83" y2="687.45" style="stroke:#000000;stroke-width:5.76"/>
	<text x="300.72" y="687.45" style="font-family:'Helvetica';font-size:99.99px;fill:#000000" transform="rotate(-90 300.72,687.45)" text-anchor="middle">1000</text>
	<line x1="390.80" y1="164.22" x2="350.83" y2="164.22" style="stroke:#000000;stroke-width:5.76"/>
	<text x="300.72" y="164.22" style="font-family:'Helvetica';font-size:99.99px;fill:#000000" transform="rotate(-90 300.72,164.22)" text-anchor="middle">2000</text>
	<text x="190.71" y="1294.96" style="font-family:'Helvetica';font-size:99.99px;fill:#000000" transform="rotate(-90 190.71,1294.96)" text-anchor="middle">Residuals</text>
	<line x1="390.80" y1="2489.19" x2="3859.02" y2="2489.19" style="stroke:#000000;stroke-width:5.76"/>
	<line x1="454.16" y1="2489.19" x2="454.16" y2="2529.16" style="stroke:#000000;stroke-width:5.76"/>
	<text x="454.16" y="2619.14" style="font-family:'Helvetica';font-size:99.99px;fill:#000000" text-anchor="middle">-2000</text>
	<line x1="1289.47" y1="2489.19" x2="1289.47" y2="2529.16" style="stroke:#000000;stroke-width:5.76"/>
	<text x="1289.47" y="2619.14" style="font-family:'Helvetica';font-size:99.99px;fill:#000000" text-anchor="middle">-1000</text>
	<line x1="2124.91" y1="2489.19" x2="2124.91" y2="2529.16" style="stroke:#000000;stroke-width:5.76"/>
	<text x="2124.91" y="2619.14" style="font-family:'Helvetica';font-size:99.99px;fill:#000000" text-anchor="middle">0</text>
	<line x1="2960.35" y1="2489.19" x2="2960.35" y2="2529.16" style="stroke:#000000;stroke-width:5.76"/>
	<text x="2960.35" y="2619.14" style="font-family:'Helvetica';font-size:99.99px;fill:#000000" text-anchor="middle">1000</text>
	<line x1="3795.66" y1="2489.19" x2="3795.66" y2="2529.16" style="stroke:#000000;stroke-width:5.76"/>
	<text x="3795.66" y="2619.14" style="font-family:'Helvetica';font-size:99.99px;fill:#000000" text-anchor="middle">2000</text>
	<text x="2124.91" y="2729.16" style="font-family:'Helvetica';font-size:99.99px;fill:#000000" text-anchor="middle">Inverse Normal</text>
</svg>
