<?xml version="1.0" encoding="UTF-8" standalone="no"?>
<!-- This is a Stata 16.1 generated SVG file (http://www.stata.com) -->

<svg version="1.1" width="600px" height="436px" viewBox="0 0 3960 2880" xmlns="http://www.w3.org/2000/svg" xmlns:xlink="http://www.w3.org/1999/xlink">
	<desc>Stata Graph - Graph</desc>
	<rect x="0" y="0" width="3960" height="2880" style="fill:#EAF2F3;stroke:none"/>
	<rect x="0.00" y="0.00" width="3959.88" height="2880.00" style="fill:#EAF2F3"/>
	<rect x="2.88" y="2.88" width="3954.12" height="2874.24" style="fill:none;stroke:#EAF2F3;stroke-width:5.76"/>
	<rect x="390.80" y="100.86" width="3468.22" height="2388.33" style="fill:#FFFFFF"/>
	<rect x="393.68" y="103.74" width="3462.46" height="2382.57" style="fill:none;stroke:#FFFFFF;stroke-width:5.76"/>
	<line x1="390.80" y1="2272.49" x2="3859.02" y2="2272.49" style="stroke:#EAF2F3;stroke-width:8.64"/>
	<line x1="390.80" y1="1745.42" x2="3859.02" y2="1745.42" style="stroke:#EAF2F3;stroke-width:8.64"/>
	<line x1="390.80" y1="1218.36" x2="3859.02" y2="1218.36" style="stroke:#EAF2F3;stroke-width:8.64"/>
	<line x1="390.80" y1="691.29" x2="3859.02" y2="691.29" style="stroke:#EAF2F3;stroke-width:8.64"/>
	<line x1="390.80" y1="164.22" x2="3859.02" y2="164.22" style="stroke:#EAF2F3;stroke-width:8.64"/>
	<circle cx="1205.94" cy="1469.82" r="26.35" style="fill:#1A476F"/>
	<circle cx="1205.94" cy="1469.82" r="22.03" style="fill:none;stroke:#1A476F;stroke-width:8.64"/>
	<circle cx="2375.51" cy="1454.97" r="26.35" style="fill:#1A476F"/>
	<circle cx="2375.51" cy="1454.97" r="22.03" style="fill:none;stroke:#1A476F;stroke-width:8.64"/>
	<circle cx="1289.47" cy="1451.88" r="26.35" style="fill:#1A476F"/>
	<circle cx="1289.47" cy="1451.88" r="22.03" style="fill:none;stroke:#1A476F;stroke-width:8.64"/>
	<circle cx="1373.01" cy="1432.33" r="26.35" style="fill:#1A476F"/>
	<circle cx="1373.01" cy="1432.33" r="22.03" style="fill:none;stroke:#1A476F;stroke-width:8.64"/>
	<circle cx="1122.41" cy="1429.23" r="26.35" style="fill:#1A476F"/>
	<circle cx="1122.41" cy="1429.23" r="22.03" style="fill:none;stroke:#1A476F;stroke-width:8.64"/>
	<circle cx="1373.01" cy="1417.60" r="26.35" style="fill:#1A476F"/>
	<circle cx="1373.01" cy="1417.60" r="22.03" style="fill:none;stroke:#1A476F;stroke-width:8.64"/>
	<circle cx="1456.54" cy="1409.68" r="26.35" style="fill:#1A476F"/>
	<circle cx="1456.54" cy="1409.68" r="22.03" style="fill:none;stroke:#1A476F;stroke-width:8.64"/>
	<circle cx="1038.88" cy="1409.68" r="26.35" style="fill:#1A476F"/>
	<circle cx="1038.88" cy="1409.68" r="22.03" style="fill:none;stroke:#1A476F;stroke-width:8.64"/>
	<circle cx="2041.38" cy="1395.94" r="26.35" style="fill:#1A476F"/>
	<circle cx="2041.38" cy="1395.94" r="22.03" style="fill:none;stroke:#1A476F;stroke-width:8.64"/>
	<circle cx="1790.66" cy="1394.95" r="26.35" style="fill:#1A476F"/>
	<circle cx="1790.66" cy="1394.95" r="22.03" style="fill:none;stroke:#1A476F;stroke-width:8.64"/>
	<circle cx="1205.94" cy="1364.88" r="26.35" style="fill:#1A476F"/>
	<circle cx="1205.94" cy="1364.88" r="22.03" style="fill:none;stroke:#1A476F;stroke-width:8.64"/>
	<circle cx="1205.94" cy="1359.06" r="26.35" style="fill:#1A476F"/>
	<circle cx="1205.94" cy="1359.06" r="22.03" style="fill:none;stroke:#1A476F;stroke-width:8.64"/>
	<circle cx="1456.54" cy="1350.15" r="26.35" style="fill:#1A476F"/>
	<circle cx="1456.54" cy="1350.15" r="22.03" style="fill:none;stroke:#1A476F;stroke-width:8.64"/>
	<circle cx="2124.91" cy="1350.15" r="26.35" style="fill:#1A476F"/>
	<circle cx="2124.91" cy="1350.15" r="22.03" style="fill:none;stroke:#1A476F;stroke-width:8.64"/>
	<circle cx="1122.41" cy="1340.13" r="26.35" style="fill:#1A476F"/>
	<circle cx="1122.41" cy="1340.13" r="22.03" style="fill:none;stroke:#1A476F;stroke-width:8.64"/>
	<circle cx="1122.41" cy="1340.13" r="26.35" style="fill:#1A476F"/>
	<circle cx="1122.41" cy="1340.13" r="22.03" style="fill:none;stroke:#1A476F;stroke-width:8.64"/>
	<circle cx="871.82" cy="1335.43" r="26.35" style="fill:#1A476F"/>
	<circle cx="871.82" cy="1335.43" r="22.03" style="fill:none;stroke:#1A476F;stroke-width:8.64"/>
	<circle cx="1707.13" cy="1333.32" r="26.35" style="fill:#1A476F"/>
	<circle cx="1707.13" cy="1333.32" r="22.03" style="fill:none;stroke:#1A476F;stroke-width:8.64"/>
	<circle cx="1289.47" cy="1320.08" r="26.35" style="fill:#1A476F"/>
	<circle cx="1289.47" cy="1320.08" r="22.03" style="fill:none;stroke:#1A476F;stroke-width:8.64"/>
	<circle cx="1957.85" cy="1312.78" r="26.35" style="fill:#1A476F"/>
	<circle cx="1957.85" cy="1312.78" r="22.03" style="fill:none;stroke:#1A476F;stroke-width:8.64"/>
	<circle cx="2291.97" cy="1305.36" r="26.35" style="fill:#1A476F"/>
	<circle cx="2291.97" cy="1305.36" r="22.03" style="fill:none;stroke:#1A476F;stroke-width:8.64"/>
	<circle cx="2208.44" cy="1305.36" r="26.35" style="fill:#1A476F"/>
	<circle cx="2208.44" cy="1305.36" r="22.03" style="fill:none;stroke:#1A476F;stroke-width:8.64"/>
	<circle cx="2626.10" cy="1304.86" r="26.35" style="fill:#1A476F"/>
	<circle cx="2626.10" cy="1304.86" r="22.03" style="fill:none;stroke:#1A476F;stroke-width:8.64"/>
	<circle cx="1957.85" cy="1290.63" r="26.35" style="fill:#1A476F"/>
	<circle cx="1957.85" cy="1290.63" r="22.03" style="fill:none;stroke:#1A476F;stroke-width:8.64"/>
	<circle cx="1707.13" cy="1283.20" r="26.35" style="fill:#1A476F"/>
	<circle cx="1707.13" cy="1283.20" r="22.03" style="fill:none;stroke:#1A476F;stroke-width:8.64"/>
	<circle cx="1957.85" cy="1283.20" r="26.35" style="fill:#1A476F"/>
	<circle cx="1957.85" cy="1283.20" r="22.03" style="fill:none;stroke:#1A476F;stroke-width:8.64"/>
	<circle cx="1038.88" cy="1267.98" r="26.35" style="fill:#1A476F"/>
	<circle cx="1038.88" cy="1267.98" r="22.03" style="fill:none;stroke:#1A476F;stroke-width:8.64"/>
	<circle cx="2041.38" cy="1260.56" r="26.35" style="fill:#1A476F"/>
	<circle cx="2041.38" cy="1260.56" r="22.03" style="fill:none;stroke:#1A476F;stroke-width:8.64"/>
	<circle cx="1790.66" cy="1260.56" r="26.35" style="fill:#1A476F"/>
	<circle cx="1790.66" cy="1260.56" r="22.03" style="fill:none;stroke:#1A476F;stroke-width:8.64"/>
	<circle cx="1038.88" cy="1260.56" r="26.35" style="fill:#1A476F"/>
	<circle cx="1038.88" cy="1260.56" r="22.03" style="fill:none;stroke:#1A476F;stroke-width:8.64"/>
	<circle cx="1038.88" cy="1260.56" r="26.35" style="fill:#1A476F"/>
	<circle cx="1038.88" cy="1260.56" r="22.03" style="fill:none;stroke:#1A476F;stroke-width:8.64"/>
	<circle cx="1623.60" cy="1245.83" r="26.35" style="fill:#1A476F"/>
	<circle cx="1623.60" cy="1245.83" r="22.03" style="fill:none;stroke:#1A476F;stroke-width:8.64"/>
	<circle cx="2542.57" cy="1245.83" r="26.35" style="fill:#1A476F"/>
	<circle cx="2542.57" cy="1245.83" r="22.03" style="fill:none;stroke:#1A476F;stroke-width:8.64"/>
	<circle cx="1707.13" cy="1230.48" r="26.35" style="fill:#1A476F"/>
	<circle cx="1707.13" cy="1230.48" r="22.03" style="fill:none;stroke:#1A476F;stroke-width:8.64"/>
	<circle cx="1707.13" cy="1230.48" r="26.35" style="fill:#1A476F"/>
	<circle cx="1707.13" cy="1230.48" r="22.03" style="fill:none;stroke:#1A476F;stroke-width:8.64"/>
	<circle cx="2041.38" cy="1230.48" r="26.35" style="fill:#1A476F"/>
	<circle cx="2041.38" cy="1230.48" r="22.03" style="fill:none;stroke:#1A476F;stroke-width:8.64"/>
	<circle cx="1205.94" cy="1230.48" r="26.35" style="fill:#1A476F"/>
	<circle cx="1205.94" cy="1230.48" r="22.03" style="fill:none;stroke:#1A476F;stroke-width:8.64"/>
	<circle cx="1874.19" cy="1259.44" r="26.35" style="fill:#1A476F"/>
	<circle cx="1874.19" cy="1259.44" r="22.03" style="fill:none;stroke:#1A476F;stroke-width:8.64"/>
	<circle cx="2208.44" cy="1215.76" r="26.35" style="fill:#1A476F"/>
	<circle cx="2208.44" cy="1215.76" r="22.03" style="fill:none;stroke:#1A476F;stroke-width:8.64"/>
	<circle cx="2375.51" cy="1201.03" r="26.35" style="fill:#1A476F"/>
	<circle cx="2375.51" cy="1201.03" r="22.03" style="fill:none;stroke:#1A476F;stroke-width:8.64"/>
	<circle cx="1373.01" cy="1196.20" r="26.35" style="fill:#1A476F"/>
	<circle cx="1373.01" cy="1196.20" r="22.03" style="fill:none;stroke:#1A476F;stroke-width:8.64"/>
	<circle cx="1205.94" cy="1185.69" r="26.35" style="fill:#1A476F"/>
	<circle cx="1205.94" cy="1185.69" r="22.03" style="fill:none;stroke:#1A476F;stroke-width:8.64"/>
	<circle cx="1540.07" cy="1185.69" r="26.35" style="fill:#1A476F"/>
	<circle cx="1540.07" cy="1185.69" r="22.03" style="fill:none;stroke:#1A476F;stroke-width:8.64"/>
	<circle cx="1373.01" cy="1185.69" r="26.35" style="fill:#1A476F"/>
	<circle cx="1373.01" cy="1185.69" r="22.03" style="fill:none;stroke:#1A476F;stroke-width:8.64"/>
	<circle cx="1122.41" cy="1178.26" r="26.35" style="fill:#1A476F"/>
	<circle cx="1122.41" cy="1178.26" r="22.03" style="fill:none;stroke:#1A476F;stroke-width:8.64"/>
	<circle cx="1122.41" cy="1178.26" r="26.35" style="fill:#1A476F"/>
	<circle cx="1122.41" cy="1178.26" r="22.03" style="fill:none;stroke:#1A476F;stroke-width:8.64"/>
	<circle cx="2291.97" cy="1176.16" r="26.35" style="fill:#1A476F"/>
	<circle cx="2291.97" cy="1176.16" r="22.03" style="fill:none;stroke:#1A476F;stroke-width:8.64"/>
	<circle cx="1205.94" cy="1170.96" r="26.35" style="fill:#1A476F"/>
	<circle cx="1205.94" cy="1170.96" r="22.03" style="fill:none;stroke:#1A476F;stroke-width:8.64"/>
	<circle cx="1623.60" cy="1170.96" r="26.35" style="fill:#1A476F"/>
	<circle cx="1623.60" cy="1170.96" r="22.03" style="fill:none;stroke:#1A476F;stroke-width:8.64"/>
	<circle cx="1456.54" cy="1170.96" r="26.35" style="fill:#1A476F"/>
	<circle cx="1456.54" cy="1170.96" r="22.03" style="fill:none;stroke:#1A476F;stroke-width:8.64"/>
	<circle cx="1456.54" cy="1165.64" r="26.35" style="fill:#1A476F"/>
	<circle cx="1456.54" cy="1165.64" r="22.03" style="fill:none;stroke:#1A476F;stroke-width:8.64"/>
	<circle cx="1540.07" cy="1163.53" r="26.35" style="fill:#1A476F"/>
	<circle cx="1540.07" cy="1163.53" r="22.03" style="fill:none;stroke:#1A476F;stroke-width:8.64"/>
	<circle cx="1456.54" cy="1148.81" r="26.35" style="fill:#1A476F"/>
	<circle cx="1456.54" cy="1148.81" r="22.03" style="fill:none;stroke:#1A476F;stroke-width:8.64"/>
	<circle cx="2124.91" cy="1140.89" r="26.35" style="fill:#1A476F"/>
	<circle cx="2124.91" cy="1140.89" r="22.03" style="fill:none;stroke:#1A476F;stroke-width:8.64"/>
	<circle cx="1205.94" cy="1126.16" r="26.35" style="fill:#1A476F"/>
	<circle cx="1205.94" cy="1126.16" r="22.03" style="fill:none;stroke:#1A476F;stroke-width:8.64"/>
	<circle cx="955.35" cy="1126.16" r="26.35" style="fill:#1A476F"/>
	<circle cx="955.35" cy="1126.16" r="22.03" style="fill:none;stroke:#1A476F;stroke-width:8.64"/>
	<circle cx="1373.01" cy="1111.43" r="26.35" style="fill:#1A476F"/>
	<circle cx="1373.01" cy="1111.43" r="22.03" style="fill:none;stroke:#1A476F;stroke-width:8.64"/>
	<circle cx="2124.91" cy="1111.43" r="26.35" style="fill:#1A476F"/>
	<circle cx="2124.91" cy="1111.43" r="22.03" style="fill:none;stroke:#1A476F;stroke-width:8.64"/>
	<circle cx="1289.47" cy="1111.43" r="26.35" style="fill:#1A476F"/>
	<circle cx="1289.47" cy="1111.43" r="22.03" style="fill:none;stroke:#1A476F;stroke-width:8.64"/>
	<circle cx="1038.88" cy="1099.80" r="26.35" style="fill:#1A476F"/>
	<circle cx="1038.88" cy="1099.80" r="22.03" style="fill:none;stroke:#1A476F;stroke-width:8.64"/>
	<circle cx="1038.88" cy="1099.80" r="26.35" style="fill:#1A476F"/>
	<circle cx="1038.88" cy="1099.80" r="22.03" style="fill:none;stroke:#1A476F;stroke-width:8.64"/>
	<circle cx="1540.07" cy="1096.09" r="26.35" style="fill:#1A476F"/>
	<circle cx="1540.07" cy="1096.09" r="22.03" style="fill:none;stroke:#1A476F;stroke-width:8.64"/>
	<circle cx="1623.60" cy="1096.09" r="26.35" style="fill:#1A476F"/>
	<circle cx="1623.60" cy="1096.09" r="22.03" style="fill:none;stroke:#1A476F;stroke-width:8.64"/>
	<circle cx="1957.85" cy="1095.10" r="26.35" style="fill:#1A476F"/>
	<circle cx="1957.85" cy="1095.10" r="22.03" style="fill:none;stroke:#1A476F;stroke-width:8.64"/>
	<circle cx="1790.66" cy="1081.36" r="26.35" style="fill:#1A476F"/>
	<circle cx="1790.66" cy="1081.36" r="22.03" style="fill:none;stroke:#1A476F;stroke-width:8.64"/>
	<circle cx="1289.47" cy="1073.94" r="26.35" style="fill:#1A476F"/>
	<circle cx="1289.47" cy="1073.94" r="22.03" style="fill:none;stroke:#1A476F;stroke-width:8.64"/>
	<circle cx="1623.60" cy="1073.94" r="26.35" style="fill:#1A476F"/>
	<circle cx="1623.60" cy="1073.94" r="22.03" style="fill:none;stroke:#1A476F;stroke-width:8.64"/>
	<circle cx="1957.85" cy="1058.71" r="26.35" style="fill:#1A476F"/>
	<circle cx="1957.85" cy="1058.71" r="22.03" style="fill:none;stroke:#1A476F;stroke-width:8.64"/>
	<circle cx="1289.47" cy="1051.29" r="26.35" style="fill:#1A476F"/>
	<circle cx="1289.47" cy="1051.29" r="22.03" style="fill:none;stroke:#1A476F;stroke-width:8.64"/>
	<circle cx="1456.54" cy="1051.29" r="26.35" style="fill:#1A476F"/>
	<circle cx="1456.54" cy="1051.29" r="22.03" style="fill:none;stroke:#1A476F;stroke-width:8.64"/>
	<circle cx="1456.54" cy="1051.29" r="26.35" style="fill:#1A476F"/>
	<circle cx="1456.54" cy="1051.29" r="22.03" style="fill:none;stroke:#1A476F;stroke-width:8.64"/>
	<circle cx="2208.44" cy="1049.19" r="26.35" style="fill:#1A476F"/>
	<circle cx="2208.44" cy="1049.19" r="22.03" style="fill:none;stroke:#1A476F;stroke-width:8.64"/>
	<circle cx="1540.07" cy="1043.86" r="26.35" style="fill:#1A476F"/>
	<circle cx="1540.07" cy="1043.86" r="22.03" style="fill:none;stroke:#1A476F;stroke-width:8.64"/>
	<circle cx="955.35" cy="1021.22" r="26.35" style="fill:#1A476F"/>
	<circle cx="955.35" cy="1021.22" r="22.03" style="fill:none;stroke:#1A476F;stroke-width:8.64"/>
	<circle cx="955.35" cy="1021.22" r="26.35" style="fill:#1A476F"/>
	<circle cx="955.35" cy="1021.22" r="22.03" style="fill:none;stroke:#1A476F;stroke-width:8.64"/>
	<circle cx="1122.41" cy="1006.49" r="26.35" style="fill:#1A476F"/>
	<circle cx="1122.41" cy="1006.49" r="22.03" style="fill:none;stroke:#1A476F;stroke-width:8.64"/>
	<circle cx="1707.13" cy="999.06" r="26.35" style="fill:#1A476F"/>
	<circle cx="1707.13" cy="999.06" r="22.03" style="fill:none;stroke:#1A476F;stroke-width:8.64"/>
	<circle cx="2291.97" cy="991.76" r="26.35" style="fill:#1A476F"/>
	<circle cx="2291.97" cy="991.76" r="22.03" style="fill:none;stroke:#1A476F;stroke-width:8.64"/>
	<circle cx="1289.47" cy="984.34" r="26.35" style="fill:#1A476F"/>
	<circle cx="1289.47" cy="984.34" r="22.03" style="fill:none;stroke:#1A476F;stroke-width:8.64"/>
	<circle cx="1540.07" cy="976.42" r="26.35" style="fill:#1A476F"/>
	<circle cx="1540.07" cy="976.42" r="22.03" style="fill:none;stroke:#1A476F;stroke-width:8.64"/>
	<circle cx="1456.54" cy="975.92" r="26.35" style="fill:#1A476F"/>
	<circle cx="1456.54" cy="975.92" r="22.03" style="fill:none;stroke:#1A476F;stroke-width:8.64"/>
	<circle cx="2291.97" cy="969.12" r="26.35" style="fill:#1A476F"/>
	<circle cx="2291.97" cy="969.12" r="22.03" style="fill:none;stroke:#1A476F;stroke-width:8.64"/>
	<circle cx="2124.91" cy="968.00" r="26.35" style="fill:#1A476F"/>
	<circle cx="2124.91" cy="968.00" r="22.03" style="fill:none;stroke:#1A476F;stroke-width:8.64"/>
	<circle cx="1289.47" cy="961.69" r="26.35" style="fill:#1A476F"/>
	<circle cx="1289.47" cy="961.69" r="22.03" style="fill:none;stroke:#1A476F;stroke-width:8.64"/>
	<circle cx="1540.07" cy="931.62" r="26.35" style="fill:#1A476F"/>
	<circle cx="1540.07" cy="931.62" r="22.03" style="fill:none;stroke:#1A476F;stroke-width:8.64"/>
	<circle cx="1038.88" cy="916.89" r="26.35" style="fill:#1A476F"/>
	<circle cx="1038.88" cy="916.89" r="22.03" style="fill:none;stroke:#1A476F;stroke-width:8.64"/>
	<circle cx="1205.94" cy="916.89" r="26.35" style="fill:#1A476F"/>
	<circle cx="1205.94" cy="916.89" r="22.03" style="fill:none;stroke:#1A476F;stroke-width:8.64"/>
	<circle cx="1540.07" cy="909.47" r="26.35" style="fill:#1A476F"/>
	<circle cx="1540.07" cy="909.47" r="22.03" style="fill:none;stroke:#1A476F;stroke-width:8.64"/>
	<circle cx="2626.10" cy="902.17" r="26.35" style="fill:#1A476F"/>
	<circle cx="2626.10" cy="902.17" r="22.03" style="fill:none;stroke:#1A476F;stroke-width:8.64"/>
	<circle cx="1456.54" cy="894.74" r="26.35" style="fill:#1A476F"/>
	<circle cx="1456.54" cy="894.74" r="22.03" style="fill:none;stroke:#1A476F;stroke-width:8.64"/>
	<circle cx="1623.60" cy="894.74" r="26.35" style="fill:#1A476F"/>
	<circle cx="1623.60" cy="894.74" r="22.03" style="fill:none;stroke:#1A476F;stroke-width:8.64"/>
	<circle cx="1373.01" cy="886.82" r="26.35" style="fill:#1A476F"/>
	<circle cx="1373.01" cy="886.82" r="22.03" style="fill:none;stroke:#1A476F;stroke-width:8.64"/>
	<circle cx="1205.94" cy="886.82" r="26.35" style="fill:#1A476F"/>
	<circle cx="1205.94" cy="886.82" r="22.03" style="fill:none;stroke:#1A476F;stroke-width:8.64"/>
	<circle cx="1707.13" cy="882.61" r="26.35" style="fill:#1A476F"/>
	<circle cx="1707.13" cy="882.61" r="22.03" style="fill:none;stroke:#1A476F;stroke-width:8.64"/>
	<circle cx="955.35" cy="879.52" r="26.35" style="fill:#1A476F"/>
	<circle cx="955.35" cy="879.52" r="22.03" style="fill:none;stroke:#1A476F;stroke-width:8.64"/>
	<circle cx="2041.38" cy="875.19" r="26.35" style="fill:#1A476F"/>
	<circle cx="2041.38" cy="875.19" r="22.03" style="fill:none;stroke:#1A476F;stroke-width:8.64"/>
	<circle cx="2041.38" cy="875.19" r="26.35" style="fill:#1A476F"/>
	<circle cx="2041.38" cy="875.19" r="22.03" style="fill:none;stroke:#1A476F;stroke-width:8.64"/>
	<circle cx="1205.94" cy="875.19" r="26.35" style="fill:#1A476F"/>
	<circle cx="1205.94" cy="875.19" r="22.03" style="fill:none;stroke:#1A476F;stroke-width:8.64"/>
	<circle cx="1205.94" cy="875.19" r="26.35" style="fill:#1A476F"/>
	<circle cx="1205.94" cy="875.19" r="22.03" style="fill:none;stroke:#1A476F;stroke-width:8.64"/>
	<circle cx="2124.91" cy="849.94" r="26.35" style="fill:#1A476F"/>
	<circle cx="2124.91" cy="849.94" r="22.03" style="fill:none;stroke:#1A476F;stroke-width:8.64"/>
	<circle cx="1623.60" cy="834.72" r="26.35" style="fill:#1A476F"/>
	<circle cx="1623.60" cy="834.72" r="22.03" style="fill:none;stroke:#1A476F;stroke-width:8.64"/>
	<circle cx="1205.94" cy="819.87" r="26.35" style="fill:#1A476F"/>
	<circle cx="1205.94" cy="819.87" r="22.03" style="fill:none;stroke:#1A476F;stroke-width:8.64"/>
	<circle cx="1623.60" cy="812.57" r="26.35" style="fill:#1A476F"/>
	<circle cx="1623.60" cy="812.57" r="22.03" style="fill:none;stroke:#1A476F;stroke-width:8.64"/>
	<circle cx="1540.07" cy="812.57" r="26.35" style="fill:#1A476F"/>
	<circle cx="1540.07" cy="812.57" r="22.03" style="fill:none;stroke:#1A476F;stroke-width:8.64"/>
	<circle cx="1289.47" cy="812.57" r="26.35" style="fill:#1A476F"/>
	<circle cx="1289.47" cy="812.57" r="22.03" style="fill:none;stroke:#1A476F;stroke-width:8.64"/>
	<circle cx="1707.13" cy="801.93" r="26.35" style="fill:#1A476F"/>
	<circle cx="1707.13" cy="801.93" r="22.03" style="fill:none;stroke:#1A476F;stroke-width:8.64"/>
	<circle cx="2124.91" cy="797.22" r="26.35" style="fill:#1A476F"/>
	<circle cx="2124.91" cy="797.22" r="22.03" style="fill:none;stroke:#1A476F;stroke-width:8.64"/>
	<circle cx="1456.54" cy="782.50" r="26.35" style="fill:#1A476F"/>
	<circle cx="1456.54" cy="782.50" r="22.03" style="fill:none;stroke:#1A476F;stroke-width:8.64"/>
	<circle cx="1122.41" cy="767.15" r="26.35" style="fill:#1A476F"/>
	<circle cx="1122.41" cy="767.15" r="22.03" style="fill:none;stroke:#1A476F;stroke-width:8.64"/>
	<circle cx="955.35" cy="765.05" r="26.35" style="fill:#1A476F"/>
	<circle cx="955.35" cy="765.05" r="22.03" style="fill:none;stroke:#1A476F;stroke-width:8.64"/>
	<circle cx="2291.97" cy="765.05" r="26.35" style="fill:#1A476F"/>
	<circle cx="2291.97" cy="765.05" r="22.03" style="fill:none;stroke:#1A476F;stroke-width:8.64"/>
	<circle cx="1122.41" cy="752.42" r="26.35" style="fill:#1A476F"/>
	<circle cx="1122.41" cy="752.42" r="22.03" style="fill:none;stroke:#1A476F;stroke-width:8.64"/>
	<circle cx="2041.38" cy="752.42" r="26.35" style="fill:#1A476F"/>
	<circle cx="2041.38" cy="752.42" r="22.03" style="fill:none;stroke:#1A476F;stroke-width:8.64"/>
	<circle cx="2375.51" cy="737.70" r="26.35" style="fill:#1A476F"/>
	<circle cx="2375.51" cy="737.70" r="22.03" style="fill:none;stroke:#1A476F;stroke-width:8.64"/>
	<circle cx="1289.47" cy="722.97" r="26.35" style="fill:#1A476F"/>
	<circle cx="1289.47" cy="722.97" r="22.03" style="fill:none;stroke:#1A476F;stroke-width:8.64"/>
	<circle cx="1957.85" cy="722.35" r="26.35" style="fill:#1A476F"/>
	<circle cx="1957.85" cy="722.35" r="22.03" style="fill:none;stroke:#1A476F;stroke-width:8.64"/>
	<circle cx="788.29" cy="722.35" r="26.35" style="fill:#1A476F"/>
	<circle cx="788.29" cy="722.35" r="22.03" style="fill:none;stroke:#1A476F;stroke-width:8.64"/>
	<circle cx="1957.85" cy="707.62" r="26.35" style="fill:#1A476F"/>
	<circle cx="1957.85" cy="707.62" r="22.03" style="fill:none;stroke:#1A476F;stroke-width:8.64"/>
	<circle cx="1707.13" cy="700.20" r="26.35" style="fill:#1A476F"/>
	<circle cx="1707.13" cy="700.20" r="22.03" style="fill:none;stroke:#1A476F;stroke-width:8.64"/>
	<circle cx="955.35" cy="692.90" r="26.35" style="fill:#1A476F"/>
	<circle cx="955.35" cy="692.90" r="22.03" style="fill:none;stroke:#1A476F;stroke-width:8.64"/>
	<circle cx="1289.47" cy="692.90" r="26.35" style="fill:#1A476F"/>
	<circle cx="1289.47" cy="692.90" r="22.03" style="fill:none;stroke:#1A476F;stroke-width:8.64"/>
	<circle cx="1790.66" cy="662.83" r="26.35" style="fill:#1A476F"/>
	<circle cx="1790.66" cy="662.83" r="22.03" style="fill:none;stroke:#1A476F;stroke-width:8.64"/>
	<circle cx="1373.01" cy="662.83" r="26.35" style="fill:#1A476F"/>
	<circle cx="1373.01" cy="662.83" r="22.03" style="fill:none;stroke:#1A476F;stroke-width:8.64"/>
	<circle cx="1456.54" cy="632.75" r="26.35" style="fill:#1A476F"/>
	<circle cx="1456.54" cy="632.75" r="22.03" style="fill:none;stroke:#1A476F;stroke-width:8.64"/>
	<circle cx="1707.13" cy="610.60" r="26.35" style="fill:#1A476F"/>
	<circle cx="1707.13" cy="610.60" r="22.03" style="fill:none;stroke:#1A476F;stroke-width:8.64"/>
	<circle cx="2208.44" cy="603.30" r="26.35" style="fill:#1A476F"/>
	<circle cx="2208.44" cy="603.30" r="22.03" style="fill:none;stroke:#1A476F;stroke-width:8.64"/>
	<circle cx="2542.57" cy="599.59" r="26.35" style="fill:#1A476F"/>
	<circle cx="2542.57" cy="599.59" r="22.03" style="fill:none;stroke:#1A476F;stroke-width:8.64"/>
	<circle cx="1205.94" cy="565.80" r="26.35" style="fill:#1A476F"/>
	<circle cx="1205.94" cy="565.80" r="22.03" style="fill:none;stroke:#1A476F;stroke-width:8.64"/>
	<circle cx="1623.60" cy="378.69" r="26.35" style="fill:#1A476F"/>
	<circle cx="1623.60" cy="378.69" r="22.03" style="fill:none;stroke:#1A476F;stroke-width:8.64"/>
	<circle cx="3378.00" cy="169.54" r="26.35" style="fill:#1A476F"/>
	<circle cx="3378.00" cy="169.54" r="22.03" style="fill:none;stroke:#1A476F;stroke-width:8.64"/>
	<circle cx="1957.85" cy="2425.95" r="26.35" style="fill:#1A476F"/>
	<circle cx="1957.85" cy="2425.95" r="22.03" style="fill:none;stroke:#1A476F;stroke-width:8.64"/>
	<circle cx="2041.38" cy="2261.48" r="26.35" style="fill:#1A476F"/>
	<circle cx="2041.38" cy="2261.48" r="22.03" style="fill:none;stroke:#1A476F;stroke-width:8.64"/>
	<circle cx="2459.04" cy="2201.33" r="26.35" style="fill:#1A476F"/>
	<circle cx="2459.04" cy="2201.33" r="22.03" style="fill:none;stroke:#1A476F;stroke-width:8.64"/>
	<circle cx="1707.13" cy="2098.62" r="26.35" style="fill:#1A476F"/>
	<circle cx="1707.13" cy="2098.62" r="22.03" style="fill:none;stroke:#1A476F;stroke-width:8.64"/>
	<circle cx="1707.13" cy="2022.63" r="26.35" style="fill:#1A476F"/>
	<circle cx="1707.13" cy="2022.63" r="22.03" style="fill:none;stroke:#1A476F;stroke-width:8.64"/>
	<circle cx="1874.19" cy="1962.61" r="26.35" style="fill:#1A476F"/>
	<circle cx="1874.19" cy="1962.61" r="22.03" style="fill:none;stroke:#1A476F;stroke-width:8.64"/>
	<circle cx="1540.07" cy="1962.61" r="26.35" style="fill:#1A476F"/>
	<circle cx="1540.07" cy="1962.61" r="22.03" style="fill:none;stroke:#1A476F;stroke-width:8.64"/>
	<circle cx="1623.60" cy="1903.09" r="26.35" style="fill:#1A476F"/>
	<circle cx="1623.60" cy="1903.09" r="22.03" style="fill:none;stroke:#1A476F;stroke-width:8.64"/>
	<circle cx="1623.60" cy="1888.24" r="26.35" style="fill:#1A476F"/>
	<circle cx="1623.60" cy="1888.24" r="22.03" style="fill:none;stroke:#1A476F;stroke-width:8.64"/>
	<circle cx="1373.01" cy="1856.18" r="26.35" style="fill:#1A476F"/>
	<circle cx="1373.01" cy="1856.18" r="22.03" style="fill:none;stroke:#1A476F;stroke-width:8.64"/>
	<circle cx="2291.97" cy="1841.33" r="26.35" style="fill:#1A476F"/>
	<circle cx="2291.97" cy="1841.33" r="22.03" style="fill:none;stroke:#1A476F;stroke-width:8.64"/>
	<circle cx="1205.94" cy="1806.06" r="26.35" style="fill:#1A476F"/>
	<circle cx="1205.94" cy="1806.06" r="22.03" style="fill:none;stroke:#1A476F;stroke-width:8.64"/>
	<circle cx="1707.13" cy="1801.86" r="26.35" style="fill:#1A476F"/>
	<circle cx="1707.13" cy="1801.86" r="22.03" style="fill:none;stroke:#1A476F;stroke-width:8.64"/>
	<circle cx="955.35" cy="1798.64" r="26.35" style="fill:#1A476F"/>
	<circle cx="955.35" cy="1798.64" r="22.03" style="fill:none;stroke:#1A476F;stroke-width:8.64"/>
	<circle cx="1707.13" cy="1783.42" r="26.35" style="fill:#1A476F"/>
	<circle cx="1707.13" cy="1783.42" r="22.03" style="fill:none;stroke:#1A476F;stroke-width:8.64"/>
	<circle cx="1289.47" cy="1783.42" r="26.35" style="fill:#1A476F"/>
	<circle cx="1289.47" cy="1783.42" r="22.03" style="fill:none;stroke:#1A476F;stroke-width:8.64"/>
	<circle cx="1373.01" cy="1783.42" r="26.35" style="fill:#1A476F"/>
	<circle cx="1373.01" cy="1783.42" r="22.03" style="fill:none;stroke:#1A476F;stroke-width:8.64"/>
	<circle cx="1623.60" cy="1779.21" r="26.35" style="fill:#1A476F"/>
	<circle cx="1623.60" cy="1779.21" r="22.03" style="fill:none;stroke:#1A476F;stroke-width:8.64"/>
	<circle cx="1373.01" cy="1761.27" r="26.35" style="fill:#1A476F"/>
	<circle cx="1373.01" cy="1761.27" r="22.03" style="fill:none;stroke:#1A476F;stroke-width:8.64"/>
	<circle cx="1289.47" cy="1716.47" r="26.35" style="fill:#1A476F"/>
	<circle cx="1289.47" cy="1716.47" r="22.03" style="fill:none;stroke:#1A476F;stroke-width:8.64"/>
	<circle cx="1707.13" cy="1716.47" r="26.35" style="fill:#1A476F"/>
	<circle cx="1707.13" cy="1716.47" r="22.03" style="fill:none;stroke:#1A476F;stroke-width:8.64"/>
	<circle cx="1205.94" cy="1702.23" r="26.35" style="fill:#1A476F"/>
	<circle cx="1205.94" cy="1702.23" r="22.03" style="fill:none;stroke:#1A476F;stroke-width:8.64"/>
	<circle cx="1205.94" cy="1701.12" r="26.35" style="fill:#1A476F"/>
	<circle cx="1205.94" cy="1701.12" r="22.03" style="fill:none;stroke:#1A476F;stroke-width:8.64"/>
	<circle cx="1790.66" cy="1701.12" r="26.35" style="fill:#1A476F"/>
	<circle cx="1790.66" cy="1701.12" r="22.03" style="fill:none;stroke:#1A476F;stroke-width:8.64"/>
	<circle cx="1623.60" cy="1692.71" r="26.35" style="fill:#1A476F"/>
	<circle cx="1623.60" cy="1692.71" r="22.03" style="fill:none;stroke:#1A476F;stroke-width:8.64"/>
	<circle cx="1038.88" cy="1679.59" r="26.35" style="fill:#1A476F"/>
	<circle cx="1038.88" cy="1679.59" r="22.03" style="fill:none;stroke:#1A476F;stroke-width:8.64"/>
	<circle cx="1289.47" cy="1679.09" r="26.35" style="fill:#1A476F"/>
	<circle cx="1289.47" cy="1679.09" r="22.03" style="fill:none;stroke:#1A476F;stroke-width:8.64"/>
	<circle cx="1456.54" cy="1646.92" r="26.35" style="fill:#1A476F"/>
	<circle cx="1456.54" cy="1646.92" r="22.03" style="fill:none;stroke:#1A476F;stroke-width:8.64"/>
	<circle cx="1874.19" cy="1646.92" r="26.35" style="fill:#1A476F"/>
	<circle cx="1874.19" cy="1646.92" r="22.03" style="fill:none;stroke:#1A476F;stroke-width:8.64"/>
	<circle cx="1289.47" cy="1634.29" r="26.35" style="fill:#1A476F"/>
	<circle cx="1289.47" cy="1634.29" r="22.03" style="fill:none;stroke:#1A476F;stroke-width:8.64"/>
	<circle cx="1038.88" cy="1626.87" r="26.35" style="fill:#1A476F"/>
	<circle cx="1038.88" cy="1626.87" r="22.03" style="fill:none;stroke:#1A476F;stroke-width:8.64"/>
	<circle cx="1707.13" cy="1618.95" r="26.35" style="fill:#1A476F"/>
	<circle cx="1707.13" cy="1618.95" r="22.03" style="fill:none;stroke:#1A476F;stroke-width:8.64"/>
	<circle cx="1289.47" cy="1618.95" r="26.35" style="fill:#1A476F"/>
	<circle cx="1289.47" cy="1618.95" r="22.03" style="fill:none;stroke:#1A476F;stroke-width:8.64"/>
	<circle cx="1122.41" cy="1596.80" r="26.35" style="fill:#1A476F"/>
	<circle cx="1122.41" cy="1596.80" r="22.03" style="fill:none;stroke:#1A476F;stroke-width:8.64"/>
	<circle cx="1122.41" cy="1589.49" r="26.35" style="fill:#1A476F"/>
	<circle cx="1122.41" cy="1589.49" r="22.03" style="fill:none;stroke:#1A476F;stroke-width:8.64"/>
	<circle cx="1289.47" cy="1589.49" r="26.35" style="fill:#1A476F"/>
	<circle cx="1289.47" cy="1589.49" r="22.03" style="fill:none;stroke:#1A476F;stroke-width:8.64"/>
	<circle cx="1373.01" cy="1586.77" r="26.35" style="fill:#1A476F"/>
	<circle cx="1373.01" cy="1586.77" r="22.03" style="fill:none;stroke:#1A476F;stroke-width:8.64"/>
	<circle cx="1790.66" cy="1574.15" r="26.35" style="fill:#1A476F"/>
	<circle cx="1790.66" cy="1574.15" r="22.03" style="fill:none;stroke:#1A476F;stroke-width:8.64"/>
	<circle cx="2208.44" cy="1559.42" r="26.35" style="fill:#1A476F"/>
	<circle cx="2208.44" cy="1559.42" r="22.03" style="fill:none;stroke:#1A476F;stroke-width:8.64"/>
	<circle cx="871.82" cy="1559.42" r="26.35" style="fill:#1A476F"/>
	<circle cx="871.82" cy="1559.42" r="22.03" style="fill:none;stroke:#1A476F;stroke-width:8.64"/>
	<circle cx="1540.07" cy="1552.00" r="26.35" style="fill:#1A476F"/>
	<circle cx="1540.07" cy="1552.00" r="22.03" style="fill:none;stroke:#1A476F;stroke-width:8.64"/>
	<circle cx="1289.47" cy="1544.70" r="26.35" style="fill:#1A476F"/>
	<circle cx="1289.47" cy="1544.70" r="22.03" style="fill:none;stroke:#1A476F;stroke-width:8.64"/>
	<circle cx="1623.60" cy="1544.70" r="26.35" style="fill:#1A476F"/>
	<circle cx="1623.60" cy="1544.70" r="22.03" style="fill:none;stroke:#1A476F;stroke-width:8.64"/>
	<circle cx="871.82" cy="1544.70" r="26.35" style="fill:#1A476F"/>
	<circle cx="871.82" cy="1544.70" r="22.03" style="fill:none;stroke:#1A476F;stroke-width:8.64"/>
	<circle cx="1540.07" cy="1537.27" r="26.35" style="fill:#1A476F"/>
	<circle cx="1540.07" cy="1537.27" r="22.03" style="fill:none;stroke:#1A476F;stroke-width:8.64"/>
	<circle cx="2124.91" cy="1529.35" r="26.35" style="fill:#1A476F"/>
	<circle cx="2124.91" cy="1529.35" r="22.03" style="fill:none;stroke:#1A476F;stroke-width:8.64"/>
	<circle cx="1456.54" cy="1529.35" r="26.35" style="fill:#1A476F"/>
	<circle cx="1456.54" cy="1529.35" r="22.03" style="fill:none;stroke:#1A476F;stroke-width:8.64"/>
	<circle cx="1038.88" cy="1527.25" r="26.35" style="fill:#1A476F"/>
	<circle cx="1038.88" cy="1527.25" r="22.03" style="fill:none;stroke:#1A476F;stroke-width:8.64"/>
	<circle cx="1540.07" cy="1521.93" r="26.35" style="fill:#1A476F"/>
	<circle cx="1540.07" cy="1521.93" r="22.03" style="fill:none;stroke:#1A476F;stroke-width:8.64"/>
	<circle cx="1038.88" cy="1514.62" r="26.35" style="fill:#1A476F"/>
	<circle cx="1038.88" cy="1514.62" r="22.03" style="fill:none;stroke:#1A476F;stroke-width:8.64"/>
	<circle cx="1790.66" cy="1512.52" r="26.35" style="fill:#1A476F"/>
	<circle cx="1790.66" cy="1512.52" r="22.03" style="fill:none;stroke:#1A476F;stroke-width:8.64"/>
	<circle cx="1289.47" cy="1508.31" r="26.35" style="fill:#1A476F"/>
	<circle cx="1289.47" cy="1508.31" r="22.03" style="fill:none;stroke:#1A476F;stroke-width:8.64"/>
	<circle cx="1790.66" cy="1499.77" r="26.35" style="fill:#1A476F"/>
	<circle cx="1790.66" cy="1499.77" r="22.03" style="fill:none;stroke:#1A476F;stroke-width:8.64"/>
	<circle cx="788.29" cy="1499.77" r="26.35" style="fill:#1A476F"/>
	<circle cx="788.29" cy="1499.77" r="22.03" style="fill:none;stroke:#1A476F;stroke-width:8.64"/>
	<circle cx="1957.85" cy="1499.77" r="26.35" style="fill:#1A476F"/>
	<circle cx="1957.85" cy="1499.77" r="22.03" style="fill:none;stroke:#1A476F;stroke-width:8.64"/>
	<circle cx="788.29" cy="1484.55" r="26.35" style="fill:#1A476F"/>
	<circle cx="788.29" cy="1484.55" r="22.03" style="fill:none;stroke:#1A476F;stroke-width:8.64"/>
	<circle cx="1540.07" cy="1484.55" r="26.35" style="fill:#1A476F"/>
	<circle cx="1540.07" cy="1484.55" r="22.03" style="fill:none;stroke:#1A476F;stroke-width:8.64"/>
	<circle cx="1038.88" cy="1484.55" r="26.35" style="fill:#1A476F"/>
	<circle cx="1038.88" cy="1484.55" r="22.03" style="fill:none;stroke:#1A476F;stroke-width:8.64"/>
	<circle cx="1373.01" cy="1484.55" r="26.35" style="fill:#1A476F"/>
	<circle cx="1373.01" cy="1484.55" r="22.03" style="fill:none;stroke:#1A476F;stroke-width:8.64"/>
	<line x1="390.80" y1="2489.19" x2="390.80" y2="100.86" style="stroke:#000000;stroke-width:5.76"/>
	<line x1="390.80" y1="2272.49" x2="350.83" y2="2272.49" style="stroke:#000000;stroke-width:5.76"/>
	<text x="300.72" y="2272.49" style="font-family:'Helvetica';font-size:99.99px;fill:#000000" transform="rotate(-90 300.72,2272.49)" text-anchor="middle">1000</text>
	<line x1="390.80" y1="1745.42" x2="350.83" y2="1745.42" style="stroke:#000000;stroke-width:5.76"/>
	<text x="300.72" y="1745.42" style="font-family:'Helvetica';font-size:99.99px;fill:#000000" transform="rotate(-90 300.72,1745.42)" text-anchor="middle">2000</text>
	<line x1="390.80" y1="1218.36" x2="350.83" y2="1218.36" style="stroke:#000000;stroke-width:5.76"/>
	<text x="300.72" y="1218.36" style="font-family:'Helvetica';font-size:99.99px;fill:#000000" transform="rotate(-90 300.72,1218.36)" text-anchor="middle">3000</text>
	<line x1="390.80" y1="691.29" x2="350.83" y2="691.29" style="stroke:#000000;stroke-width:5.76"/>
	<text x="300.72" y="691.29" style="font-family:'Helvetica';font-size:99.99px;fill:#000000" transform="rotate(-90 300.72,691.29)" text-anchor="middle">4000</text>
	<line x1="390.80" y1="164.22" x2="350.83" y2="164.22" style="stroke:#000000;stroke-width:5.76"/>
	<text x="300.72" y="164.22" style="font-family:'Helvetica';font-size:99.99px;fill:#000000" transform="rotate(-90 300.72,164.22)" text-anchor="middle">5000</text>
	<text x="190.71" y="1294.96" style="font-family:'Helvetica';font-size:99.99px;fill:#000000" transform="rotate(-90 190.71,1294.96)" text-anchor="middle">birthweight (grams)</text>
	<line x1="390.80" y1="2489.19" x2="3859.02" y2="2489.19" style="stroke:#000000;stroke-width:5.76"/>
	<line x1="454.16" y1="2489.19" x2="454.16" y2="2529.16" style="stroke:#000000;stroke-width:5.76"/>
	<text x="454.16" y="2619.14" style="font-family:'Helvetica';font-size:99.99px;fill:#000000" text-anchor="middle">10</text>
	<line x1="1289.47" y1="2489.19" x2="1289.47" y2="2529.16" style="stroke:#000000;stroke-width:5.76"/>
	<text x="1289.47" y="2619.14" style="font-family:'Helvetica';font-size:99.99px;fill:#000000" text-anchor="middle">20</text>
	<line x1="2124.91" y1="2489.19" x2="2124.91" y2="2529.16" style="stroke:#000000;stroke-width:5.76"/>
	<text x="2124.91" y="2619.14" style="font-family:'Helvetica';font-size:99.99px;fill:#000000" text-anchor="middle">30</text>
	<line x1="2960.35" y1="2489.19" x2="2960.35" y2="2529.16" style="stroke:#000000;stroke-width:5.76"/>
	<text x="2960.35" y="2619.14" style="font-family:'Helvetica';font-size:99.99px;fill:#000000" text-anchor="middle">40</text>
	<line x1="3795.66" y1="2489.19" x2="3795.66" y2="2529.16" style="stroke:#000000;stroke-width:5.76"/>
	<text x="3795.66" y="2619.14" style="font-family:'Helvetica';font-size:99.99px;fill:#000000" text-anchor="middle">50</text>
	<text x="2124.91" y="2729.16" style="font-family:'Helvetica';font-size:99.99px;fill:#000000" text-anchor="middle">age of mother</text>
</svg>
