<?xml version="1.0" encoding="UTF-8" standalone="no"?>
<!-- This is a Stata 16.1 generated SVG file (http://www.stata.com) -->

<svg version="1.1" width="600px" height="436px" viewBox="0 0 3960 2880" xmlns="http://www.w3.org/2000/svg" xmlns:xlink="http://www.w3.org/1999/xlink">
	<desc>Stata Graph - Graph</desc>
	<rect x="0" y="0" width="3960" height="2880" style="fill:#EAF2F3;stroke:none"/>
	<rect x="0.00" y="0.00" width="3959.88" height="2880.00" style="fill:#EAF2F3"/>
	<rect x="2.88" y="2.88" width="3954.12" height="2874.24" style="fill:none;stroke:#EAF2F3;stroke-width:5.76"/>
	<rect x="390.80" y="100.86" width="3468.22" height="2388.33" style="fill:#FFFFFF"/>
	<rect x="393.68" y="103.74" width="3462.46" height="2382.57" style="fill:none;stroke:#FFFFFF;stroke-width:5.76"/>
	<line x1="390.80" y1="2257.39" x2="3859.02" y2="2257.39" style="stroke:#EAF2F3;stroke-width:8.64"/>
	<line x1="390.80" y1="1734.04" x2="3859.02" y2="1734.04" style="stroke:#EAF2F3;stroke-width:8.64"/>
	<line x1="390.80" y1="1210.81" x2="3859.02" y2="1210.81" style="stroke:#EAF2F3;stroke-width:8.64"/>
	<line x1="390.80" y1="687.45" x2="3859.02" y2="687.45" style="stroke:#EAF2F3;stroke-width:8.64"/>
	<line x1="390.80" y1="164.22" x2="3859.02" y2="164.22" style="stroke:#EAF2F3;stroke-width:8.64"/>
	<line x1="390.80" y1="1210.81" x2="3859.02" y2="1210.81" style="stroke:#C10534;stroke-width:8.64"/>
	<circle cx="2052.39" cy="1396.81" r="26.35" style="fill:#1A476F"/>
	<circle cx="2052.39" cy="1396.81" r="22.03" style="fill:none;stroke:#1A476F;stroke-width:8.64"/>
	<circle cx="2129.74" cy="1394.21" r="26.35" style="fill:#1A476F"/>
	<circle cx="2129.74" cy="1394.21" r="22.03" style="fill:none;stroke:#1A476F;stroke-width:8.64"/>
	<circle cx="2122.81" cy="1390.00" r="26.35" style="fill:#1A476F"/>
	<circle cx="2122.81" cy="1390.00" r="22.03" style="fill:none;stroke:#1A476F;stroke-width:8.64"/>
	<circle cx="2129.49" cy="1371.69" r="26.35" style="fill:#1A476F"/>
	<circle cx="2129.49" cy="1371.69" r="22.03" style="fill:none;stroke:#1A476F;stroke-width:8.64"/>
	<circle cx="2109.44" cy="1365.38" r="26.35" style="fill:#1A476F"/>
	<circle cx="2109.44" cy="1365.38" r="22.03" style="fill:none;stroke:#1A476F;stroke-width:8.64"/>
	<circle cx="2049.55" cy="1344.46" r="26.35" style="fill:#1A476F"/>
	<circle cx="2049.55" cy="1344.46" r="22.03" style="fill:none;stroke:#1A476F;stroke-width:8.64"/>
	<circle cx="3558.18" cy="1572.91" r="26.35" style="fill:#1A476F"/>
	<circle cx="3558.18" cy="1572.91" r="22.03" style="fill:none;stroke:#1A476F;stroke-width:8.64"/>
	<circle cx="2022.82" cy="1332.46" r="26.35" style="fill:#1A476F"/>
	<circle cx="2022.82" cy="1332.46" r="22.03" style="fill:none;stroke:#1A476F;stroke-width:8.64"/>
	<circle cx="2182.95" cy="1343.97" r="26.35" style="fill:#1A476F"/>
	<circle cx="2182.95" cy="1343.97" r="22.03" style="fill:none;stroke:#1A476F;stroke-width:8.64"/>
	<circle cx="2162.90" cy="1339.76" r="26.35" style="fill:#1A476F"/>
	<circle cx="2162.90" cy="1339.76" r="22.03" style="fill:none;stroke:#1A476F;stroke-width:8.64"/>
	<circle cx="2036.18" cy="1290.13" r="26.35" style="fill:#1A476F"/>
	<circle cx="2036.18" cy="1290.13" r="22.03" style="fill:none;stroke:#1A476F;stroke-width:8.64"/>
	<circle cx="2036.18" cy="1284.32" r="26.35" style="fill:#1A476F"/>
	<circle cx="2036.18" cy="1284.32" r="22.03" style="fill:none;stroke:#1A476F;stroke-width:8.64"/>
	<circle cx="2056.23" cy="1278.62" r="26.35" style="fill:#1A476F"/>
	<circle cx="2056.23" cy="1278.62" r="22.03" style="fill:none;stroke:#1A476F;stroke-width:8.64"/>
	<circle cx="2109.69" cy="1286.92" r="26.35" style="fill:#1A476F"/>
	<circle cx="2109.69" cy="1286.92" r="22.03" style="fill:none;stroke:#1A476F;stroke-width:8.64"/>
	<circle cx="2109.44" cy="1277.02" r="26.35" style="fill:#1A476F"/>
	<circle cx="2109.44" cy="1277.02" r="22.03" style="fill:none;stroke:#1A476F;stroke-width:8.64"/>
	<circle cx="2109.44" cy="1277.02" r="26.35" style="fill:#1A476F"/>
	<circle cx="2109.44" cy="1277.02" r="22.03" style="fill:none;stroke:#1A476F;stroke-width:8.64"/>
	<circle cx="2025.66" cy="1259.07" r="26.35" style="fill:#1A476F"/>
	<circle cx="2025.66" cy="1259.07" r="22.03" style="fill:none;stroke:#1A476F;stroke-width:8.64"/>
	<circle cx="2156.22" cy="1277.51" r="26.35" style="fill:#1A476F"/>
	<circle cx="2156.22" cy="1277.51" r="22.03" style="fill:none;stroke:#1A476F;stroke-width:8.64"/>
	<circle cx="2042.87" cy="1246.70" r="26.35" style="fill:#1A476F"/>
	<circle cx="2042.87" cy="1246.70" r="22.03" style="fill:none;stroke:#1A476F;stroke-width:8.64"/>
	<circle cx="2176.27" cy="1260.19" r="26.35" style="fill:#1A476F"/>
	<circle cx="2176.27" cy="1260.19" r="22.03" style="fill:none;stroke:#1A476F;stroke-width:8.64"/>
	<circle cx="2123.05" cy="1244.59" r="26.35" style="fill:#1A476F"/>
	<circle cx="2123.05" cy="1244.59" r="22.03" style="fill:none;stroke:#1A476F;stroke-width:8.64"/>
	<circle cx="3618.33" cy="1478.73" r="26.35" style="fill:#1A476F"/>
	<circle cx="3618.33" cy="1478.73" r="22.03" style="fill:none;stroke:#1A476F;stroke-width:8.64"/>
	<circle cx="3651.74" cy="1483.44" r="26.35" style="fill:#1A476F"/>
	<circle cx="3651.74" cy="1483.44" r="22.03" style="fill:none;stroke:#1A476F;stroke-width:8.64"/>
	<circle cx="2096.32" cy="1225.66" r="26.35" style="fill:#1A476F"/>
	<circle cx="2096.32" cy="1225.66" r="22.03" style="fill:none;stroke:#1A476F;stroke-width:8.64"/>
	<circle cx="2076.28" cy="1215.26" r="26.35" style="fill:#1A476F"/>
	<circle cx="2076.28" cy="1215.26" r="22.03" style="fill:none;stroke:#1A476F;stroke-width:8.64"/>
	<circle cx="3598.28" cy="1453.61" r="26.35" style="fill:#1A476F"/>
	<circle cx="3598.28" cy="1453.61" r="22.03" style="fill:none;stroke:#1A476F;stroke-width:8.64"/>
	<circle cx="2102.76" cy="1204.25" r="26.35" style="fill:#1A476F"/>
	<circle cx="2102.76" cy="1204.25" r="22.03" style="fill:none;stroke:#1A476F;stroke-width:8.64"/>
	<circle cx="3604.96" cy="1432.20" r="26.35" style="fill:#1A476F"/>
	<circle cx="3604.96" cy="1432.20" r="22.03" style="fill:none;stroke:#1A476F;stroke-width:8.64"/>
	<circle cx="677.04" cy="973.57" r="26.35" style="fill:#1A476F"/>
	<circle cx="677.04" cy="973.57" r="22.03" style="fill:none;stroke:#1A476F;stroke-width:8.64"/>
	<circle cx="2039.03" cy="1186.92" r="26.35" style="fill:#1A476F"/>
	<circle cx="2039.03" cy="1186.92" r="22.03" style="fill:none;stroke:#1A476F;stroke-width:8.64"/>
	<circle cx="2039.03" cy="1186.92" r="26.35" style="fill:#1A476F"/>
	<circle cx="2039.03" cy="1186.92" r="22.03" style="fill:none;stroke:#1A476F;stroke-width:8.64"/>
	<circle cx="2149.54" cy="1189.52" r="26.35" style="fill:#1A476F"/>
	<circle cx="2149.54" cy="1189.52" r="22.03" style="fill:none;stroke:#1A476F;stroke-width:8.64"/>
	<circle cx="737.18" cy="968.37" r="26.35" style="fill:#1A476F"/>
	<circle cx="737.18" cy="968.37" r="22.03" style="fill:none;stroke:#1A476F;stroke-width:8.64"/>
	<circle cx="3578.23" cy="1398.17" r="26.35" style="fill:#1A476F"/>
	<circle cx="3578.23" cy="1398.17" r="22.03" style="fill:none;stroke:#1A476F;stroke-width:8.64"/>
	<circle cx="2092.36" cy="1165.51" r="26.35" style="fill:#1A476F"/>
	<circle cx="2092.36" cy="1165.51" r="22.03" style="fill:none;stroke:#1A476F;stroke-width:8.64"/>
	<circle cx="2182.95" cy="1179.62" r="26.35" style="fill:#1A476F"/>
	<circle cx="2182.95" cy="1179.62" r="22.03" style="fill:none;stroke:#1A476F;stroke-width:8.64"/>
	<circle cx="2116.13" cy="1169.23" r="26.35" style="fill:#1A476F"/>
	<circle cx="2116.13" cy="1169.23" r="22.03" style="fill:none;stroke:#1A476F;stroke-width:8.64"/>
	<circle cx="2169.59" cy="1206.35" r="26.35" style="fill:#1A476F"/>
	<circle cx="2169.59" cy="1206.35" r="22.03" style="fill:none;stroke:#1A476F;stroke-width:8.64"/>
	<circle cx="2196.32" cy="1167.12" r="26.35" style="fill:#1A476F"/>
	<circle cx="2196.32" cy="1167.12" r="22.03" style="fill:none;stroke:#1A476F;stroke-width:8.64"/>
	<circle cx="2209.68" cy="1154.50" r="26.35" style="fill:#1A476F"/>
	<circle cx="2209.68" cy="1154.50" r="22.03" style="fill:none;stroke:#1A476F;stroke-width:8.64"/>
	<circle cx="643.62" cy="904.52" r="26.35" style="fill:#1A476F"/>
	<circle cx="643.62" cy="904.52" r="22.03" style="fill:none;stroke:#1A476F;stroke-width:8.64"/>
	<circle cx="3538.14" cy="1347.43" r="26.35" style="fill:#1A476F"/>
	<circle cx="3538.14" cy="1347.43" r="22.03" style="fill:none;stroke:#1A476F;stroke-width:8.64"/>
	<circle cx="2079.00" cy="1118.86" r="26.35" style="fill:#1A476F"/>
	<circle cx="2079.00" cy="1118.86" r="22.03" style="fill:none;stroke:#1A476F;stroke-width:8.64"/>
	<circle cx="3551.50" cy="1349.54" r="26.35" style="fill:#1A476F"/>
	<circle cx="3551.50" cy="1349.54" r="22.03" style="fill:none;stroke:#1A476F;stroke-width:8.64"/>
	<circle cx="2109.44" cy="1116.26" r="26.35" style="fill:#1A476F"/>
	<circle cx="2109.44" cy="1116.26" r="22.03" style="fill:none;stroke:#1A476F;stroke-width:8.64"/>
	<circle cx="2109.44" cy="1116.26" r="26.35" style="fill:#1A476F"/>
	<circle cx="2109.44" cy="1116.26" r="22.03" style="fill:none;stroke:#1A476F;stroke-width:8.64"/>
	<circle cx="3625.01" cy="1351.52" r="26.35" style="fill:#1A476F"/>
	<circle cx="3625.01" cy="1351.52" r="22.03" style="fill:none;stroke:#1A476F;stroke-width:8.64"/>
	<circle cx="2036.18" cy="1097.57" r="26.35" style="fill:#1A476F"/>
	<circle cx="2036.18" cy="1097.57" r="22.03" style="fill:none;stroke:#1A476F;stroke-width:8.64"/>
	<circle cx="3571.55" cy="1337.90" r="26.35" style="fill:#1A476F"/>
	<circle cx="3571.55" cy="1337.90" r="22.03" style="fill:none;stroke:#1A476F;stroke-width:8.64"/>
	<circle cx="634.22" cy="877.91" r="26.35" style="fill:#1A476F"/>
	<circle cx="634.22" cy="877.91" r="22.03" style="fill:none;stroke:#1A476F;stroke-width:8.64"/>
	<circle cx="3558.18" cy="1330.60" r="26.35" style="fill:#1A476F"/>
	<circle cx="3558.18" cy="1330.60" r="22.03" style="fill:none;stroke:#1A476F;stroke-width:8.64"/>
	<circle cx="2062.91" cy="1094.36" r="26.35" style="fill:#1A476F"/>
	<circle cx="2062.91" cy="1094.36" r="22.03" style="fill:none;stroke:#1A476F;stroke-width:8.64"/>
	<circle cx="2136.17" cy="1091.14" r="26.35" style="fill:#1A476F"/>
	<circle cx="2136.17" cy="1091.14" r="22.03" style="fill:none;stroke:#1A476F;stroke-width:8.64"/>
	<circle cx="2189.63" cy="1091.76" r="26.35" style="fill:#1A476F"/>
	<circle cx="2189.63" cy="1091.76" r="22.03" style="fill:none;stroke:#1A476F;stroke-width:8.64"/>
	<circle cx="2036.18" cy="1053.02" r="26.35" style="fill:#1A476F"/>
	<circle cx="2036.18" cy="1053.02" r="22.03" style="fill:none;stroke:#1A476F;stroke-width:8.64"/>
	<circle cx="2016.13" cy="1049.93" r="26.35" style="fill:#1A476F"/>
	<circle cx="2016.13" cy="1049.93" r="22.03" style="fill:none;stroke:#1A476F;stroke-width:8.64"/>
	<circle cx="627.54" cy="817.77" r="26.35" style="fill:#1A476F"/>
	<circle cx="627.54" cy="817.77" r="22.03" style="fill:none;stroke:#1A476F;stroke-width:8.64"/>
	<circle cx="2109.69" cy="1049.93" r="26.35" style="fill:#1A476F"/>
	<circle cx="2109.69" cy="1049.93" r="22.03" style="fill:none;stroke:#1A476F;stroke-width:8.64"/>
	<circle cx="2042.87" cy="1039.41" r="26.35" style="fill:#1A476F"/>
	<circle cx="2042.87" cy="1039.41" r="22.03" style="fill:none;stroke:#1A476F;stroke-width:8.64"/>
	<circle cx="2022.82" cy="1024.81" r="26.35" style="fill:#1A476F"/>
	<circle cx="2022.82" cy="1024.81" r="22.03" style="fill:none;stroke:#1A476F;stroke-width:8.64"/>
	<circle cx="2022.82" cy="1024.81" r="26.35" style="fill:#1A476F"/>
	<circle cx="2022.82" cy="1024.81" r="22.03" style="fill:none;stroke:#1A476F;stroke-width:8.64"/>
	<circle cx="2062.91" cy="1027.40" r="26.35" style="fill:#1A476F"/>
	<circle cx="2062.91" cy="1027.40" r="22.03" style="fill:none;stroke:#1A476F;stroke-width:8.64"/>
	<circle cx="2069.59" cy="1028.39" r="26.35" style="fill:#1A476F"/>
	<circle cx="2069.59" cy="1028.39" r="22.03" style="fill:none;stroke:#1A476F;stroke-width:8.64"/>
	<circle cx="3598.28" cy="1266.74" r="26.35" style="fill:#1A476F"/>
	<circle cx="3598.28" cy="1266.74" r="22.03" style="fill:none;stroke:#1A476F;stroke-width:8.64"/>
	<circle cx="660.95" cy="793.14" r="26.35" style="fill:#1A476F"/>
	<circle cx="660.95" cy="793.14" r="22.03" style="fill:none;stroke:#1A476F;stroke-width:8.64"/>
	<circle cx="2042.87" cy="1002.28" r="26.35" style="fill:#1A476F"/>
	<circle cx="2042.87" cy="1002.28" r="22.03" style="fill:none;stroke:#1A476F;stroke-width:8.64"/>
	<circle cx="2069.59" cy="1006.49" r="26.35" style="fill:#1A476F"/>
	<circle cx="2069.59" cy="1006.49" r="22.03" style="fill:none;stroke:#1A476F;stroke-width:8.64"/>
	<circle cx="674.31" cy="772.72" r="26.35" style="fill:#1A476F"/>
	<circle cx="674.31" cy="772.72" r="22.03" style="fill:none;stroke:#1A476F;stroke-width:8.64"/>
	<circle cx="3544.82" cy="1215.02" r="26.35" style="fill:#1A476F"/>
	<circle cx="3544.82" cy="1215.02" r="22.03" style="fill:none;stroke:#1A476F;stroke-width:8.64"/>
	<circle cx="2072.32" cy="984.34" r="26.35" style="fill:#1A476F"/>
	<circle cx="2072.32" cy="984.34" r="22.03" style="fill:none;stroke:#1A476F;stroke-width:8.64"/>
	<circle cx="2136.17" cy="994.36" r="26.35" style="fill:#1A476F"/>
	<circle cx="2136.17" cy="994.36" r="22.03" style="fill:none;stroke:#1A476F;stroke-width:8.64"/>
	<circle cx="694.36" cy="766.53" r="26.35" style="fill:#1A476F"/>
	<circle cx="694.36" cy="766.53" r="22.03" style="fill:none;stroke:#1A476F;stroke-width:8.64"/>
	<circle cx="640.90" cy="752.92" r="26.35" style="fill:#1A476F"/>
	<circle cx="640.90" cy="752.92" r="22.03" style="fill:none;stroke:#1A476F;stroke-width:8.64"/>
	<circle cx="2032.35" cy="948.33" r="26.35" style="fill:#1A476F"/>
	<circle cx="2032.35" cy="948.33" r="22.03" style="fill:none;stroke:#1A476F;stroke-width:8.64"/>
	<circle cx="2096.08" cy="958.23" r="26.35" style="fill:#1A476F"/>
	<circle cx="2096.08" cy="958.23" r="22.03" style="fill:none;stroke:#1A476F;stroke-width:8.64"/>
	<circle cx="2045.71" cy="935.70" r="26.35" style="fill:#1A476F"/>
	<circle cx="2045.71" cy="935.70" r="22.03" style="fill:none;stroke:#1A476F;stroke-width:8.64"/>
	<circle cx="3578.23" cy="1168.36" r="26.35" style="fill:#1A476F"/>
	<circle cx="3578.23" cy="1168.36" r="22.03" style="fill:none;stroke:#1A476F;stroke-width:8.64"/>
	<circle cx="2203.00" cy="945.73" r="26.35" style="fill:#1A476F"/>
	<circle cx="2203.00" cy="945.73" r="22.03" style="fill:none;stroke:#1A476F;stroke-width:8.64"/>
	<circle cx="636.94" cy="693.15" r="26.35" style="fill:#1A476F"/>
	<circle cx="636.94" cy="693.15" r="22.03" style="fill:none;stroke:#1A476F;stroke-width:8.64"/>
	<circle cx="3564.87" cy="1143.86" r="26.35" style="fill:#1A476F"/>
	<circle cx="3564.87" cy="1143.86" r="22.03" style="fill:none;stroke:#1A476F;stroke-width:8.64"/>
	<circle cx="3558.18" cy="1142.25" r="26.35" style="fill:#1A476F"/>
	<circle cx="3558.18" cy="1142.25" r="22.03" style="fill:none;stroke:#1A476F;stroke-width:8.64"/>
	<circle cx="3625.01" cy="1145.96" r="26.35" style="fill:#1A476F"/>
	<circle cx="3625.01" cy="1145.96" r="22.03" style="fill:none;stroke:#1A476F;stroke-width:8.64"/>
	<circle cx="2109.69" cy="907.61" r="26.35" style="fill:#1A476F"/>
	<circle cx="2109.69" cy="907.61" r="22.03" style="fill:none;stroke:#1A476F;stroke-width:8.64"/>
	<circle cx="2042.87" cy="890.78" r="26.35" style="fill:#1A476F"/>
	<circle cx="2042.87" cy="890.78" r="22.03" style="fill:none;stroke:#1A476F;stroke-width:8.64"/>
	<circle cx="2062.91" cy="864.17" r="26.35" style="fill:#1A476F"/>
	<circle cx="2062.91" cy="864.17" r="22.03" style="fill:none;stroke:#1A476F;stroke-width:8.64"/>
	<circle cx="600.81" cy="620.50" r="26.35" style="fill:#1A476F"/>
	<circle cx="600.81" cy="620.50" r="22.03" style="fill:none;stroke:#1A476F;stroke-width:8.64"/>
	<circle cx="2036.18" cy="845.24" r="26.35" style="fill:#1A476F"/>
	<circle cx="2036.18" cy="845.24" r="22.03" style="fill:none;stroke:#1A476F;stroke-width:8.64"/>
	<circle cx="3564.87" cy="1077.40" r="26.35" style="fill:#1A476F"/>
	<circle cx="3564.87" cy="1077.40" r="22.03" style="fill:none;stroke:#1A476F;stroke-width:8.64"/>
	<circle cx="3651.74" cy="1083.59" r="26.35" style="fill:#1A476F"/>
	<circle cx="3651.74" cy="1083.59" r="22.03" style="fill:none;stroke:#1A476F;stroke-width:8.64"/>
	<circle cx="3558.18" cy="1061.68" r="26.35" style="fill:#1A476F"/>
	<circle cx="3558.18" cy="1061.68" r="22.03" style="fill:none;stroke:#1A476F;stroke-width:8.64"/>
	<circle cx="3571.55" cy="1063.79" r="26.35" style="fill:#1A476F"/>
	<circle cx="3571.55" cy="1063.79" r="22.03" style="fill:none;stroke:#1A476F;stroke-width:8.64"/>
	<circle cx="2049.55" cy="817.52" r="26.35" style="fill:#1A476F"/>
	<circle cx="2049.55" cy="817.52" r="22.03" style="fill:none;stroke:#1A476F;stroke-width:8.64"/>
	<circle cx="2116.13" cy="827.91" r="26.35" style="fill:#1A476F"/>
	<circle cx="2116.13" cy="827.91" r="22.03" style="fill:none;stroke:#1A476F;stroke-width:8.64"/>
	<circle cx="2156.22" cy="830.02" r="26.35" style="fill:#1A476F"/>
	<circle cx="2156.22" cy="830.02" r="22.03" style="fill:none;stroke:#1A476F;stroke-width:8.64"/>
	<circle cx="2096.08" cy="817.52" r="26.35" style="fill:#1A476F"/>
	<circle cx="2096.08" cy="817.52" r="22.03" style="fill:none;stroke:#1A476F;stroke-width:8.64"/>
	<circle cx="3604.96" cy="1049.56" r="26.35" style="fill:#1A476F"/>
	<circle cx="3604.96" cy="1049.56" r="22.03" style="fill:none;stroke:#1A476F;stroke-width:8.64"/>
	<circle cx="3604.96" cy="1049.56" r="26.35" style="fill:#1A476F"/>
	<circle cx="3604.96" cy="1049.56" r="22.03" style="fill:none;stroke:#1A476F;stroke-width:8.64"/>
	<circle cx="2116.13" cy="816.40" r="26.35" style="fill:#1A476F"/>
	<circle cx="2116.13" cy="816.40" r="22.03" style="fill:none;stroke:#1A476F;stroke-width:8.64"/>
	<circle cx="2116.13" cy="816.40" r="26.35" style="fill:#1A476F"/>
	<circle cx="2116.13" cy="816.40" r="22.03" style="fill:none;stroke:#1A476F;stroke-width:8.64"/>
	<circle cx="3611.64" cy="1025.55" r="26.35" style="fill:#1A476F"/>
	<circle cx="3611.64" cy="1025.55" r="22.03" style="fill:none;stroke:#1A476F;stroke-width:8.64"/>
	<circle cx="3571.55" cy="1004.14" r="26.35" style="fill:#1A476F"/>
	<circle cx="3571.55" cy="1004.14" r="22.03" style="fill:none;stroke:#1A476F;stroke-width:8.64"/>
	<circle cx="2116.13" cy="761.46" r="26.35" style="fill:#1A476F"/>
	<circle cx="2116.13" cy="761.46" r="22.03" style="fill:none;stroke:#1A476F;stroke-width:8.64"/>
	<circle cx="2069.59" cy="746.85" r="26.35" style="fill:#1A476F"/>
	<circle cx="2069.59" cy="746.85" r="22.03" style="fill:none;stroke:#1A476F;stroke-width:8.64"/>
	<circle cx="3564.87" cy="981.12" r="26.35" style="fill:#1A476F"/>
	<circle cx="3564.87" cy="981.12" r="22.03" style="fill:none;stroke:#1A476F;stroke-width:8.64"/>
	<circle cx="2042.87" cy="742.77" r="26.35" style="fill:#1A476F"/>
	<circle cx="2042.87" cy="742.77" r="22.03" style="fill:none;stroke:#1A476F;stroke-width:8.64"/>
	<circle cx="2092.36" cy="740.05" r="26.35" style="fill:#1A476F"/>
	<circle cx="2092.36" cy="740.05" r="22.03" style="fill:none;stroke:#1A476F;stroke-width:8.64"/>
	<circle cx="3611.64" cy="973.20" r="26.35" style="fill:#1A476F"/>
	<circle cx="3611.64" cy="973.20" r="22.03" style="fill:none;stroke:#1A476F;stroke-width:8.64"/>
	<circle cx="3558.18" cy="950.18" r="26.35" style="fill:#1A476F"/>
	<circle cx="3558.18" cy="950.18" r="22.03" style="fill:none;stroke:#1A476F;stroke-width:8.64"/>
	<circle cx="2109.44" cy="708.12" r="26.35" style="fill:#1A476F"/>
	<circle cx="2109.44" cy="708.12" r="22.03" style="fill:none;stroke:#1A476F;stroke-width:8.64"/>
	<circle cx="2032.35" cy="694.01" r="26.35" style="fill:#1A476F"/>
	<circle cx="2032.35" cy="694.01" r="22.03" style="fill:none;stroke:#1A476F;stroke-width:8.64"/>
	<circle cx="3625.01" cy="943.38" r="26.35" style="fill:#1A476F"/>
	<circle cx="3625.01" cy="943.38" r="22.03" style="fill:none;stroke:#1A476F;stroke-width:8.64"/>
	<circle cx="2029.50" cy="681.02" r="26.35" style="fill:#1A476F"/>
	<circle cx="2029.50" cy="681.02" r="22.03" style="fill:none;stroke:#1A476F;stroke-width:8.64"/>
	<circle cx="2182.95" cy="705.03" r="26.35" style="fill:#1A476F"/>
	<circle cx="2182.95" cy="705.03" r="22.03" style="fill:none;stroke:#1A476F;stroke-width:8.64"/>
	<circle cx="3631.69" cy="917.26" r="26.35" style="fill:#1A476F"/>
	<circle cx="3631.69" cy="917.26" r="22.03" style="fill:none;stroke:#1A476F;stroke-width:8.64"/>
	<circle cx="2122.81" cy="666.29" r="26.35" style="fill:#1A476F"/>
	<circle cx="2122.81" cy="666.29" r="22.03" style="fill:none;stroke:#1A476F;stroke-width:8.64"/>
	<circle cx="2096.32" cy="661.59" r="26.35" style="fill:#1A476F"/>
	<circle cx="2096.32" cy="661.59" r="22.03" style="fill:none;stroke:#1A476F;stroke-width:8.64"/>
	<circle cx="3504.72" cy="882.12" r="26.35" style="fill:#1A476F"/>
	<circle cx="3504.72" cy="882.12" r="22.03" style="fill:none;stroke:#1A476F;stroke-width:8.64"/>
	<circle cx="2096.32" cy="646.99" r="26.35" style="fill:#1A476F"/>
	<circle cx="2096.32" cy="646.99" r="22.03" style="fill:none;stroke:#1A476F;stroke-width:8.64"/>
	<circle cx="3578.23" cy="871.72" r="26.35" style="fill:#1A476F"/>
	<circle cx="3578.23" cy="871.72" r="22.03" style="fill:none;stroke:#1A476F;stroke-width:8.64"/>
	<circle cx="2016.13" cy="619.76" r="26.35" style="fill:#1A476F"/>
	<circle cx="2016.13" cy="619.76" r="22.03" style="fill:none;stroke:#1A476F;stroke-width:8.64"/>
	<circle cx="3544.82" cy="859.10" r="26.35" style="fill:#1A476F"/>
	<circle cx="3544.82" cy="859.10" r="22.03" style="fill:none;stroke:#1A476F;stroke-width:8.64"/>
	<circle cx="2082.96" cy="600.33" r="26.35" style="fill:#1A476F"/>
	<circle cx="2082.96" cy="600.33" r="22.03" style="fill:none;stroke:#1A476F;stroke-width:8.64"/>
	<circle cx="3551.50" cy="830.39" r="26.35" style="fill:#1A476F"/>
	<circle cx="3551.50" cy="830.39" r="22.03" style="fill:none;stroke:#1A476F;stroke-width:8.64"/>
	<circle cx="3558.18" cy="801.55" r="26.35" style="fill:#1A476F"/>
	<circle cx="3558.18" cy="801.55" r="22.03" style="fill:none;stroke:#1A476F;stroke-width:8.64"/>
	<circle cx="3578.23" cy="782.74" r="26.35" style="fill:#1A476F"/>
	<circle cx="3578.23" cy="782.74" r="22.03" style="fill:none;stroke:#1A476F;stroke-width:8.64"/>
	<circle cx="3618.33" cy="781.63" r="26.35" style="fill:#1A476F"/>
	<circle cx="3618.33" cy="781.63" r="22.03" style="fill:none;stroke:#1A476F;stroke-width:8.64"/>
	<circle cx="3645.06" cy="782.25" r="26.35" style="fill:#1A476F"/>
	<circle cx="3645.06" cy="782.25" r="22.03" style="fill:none;stroke:#1A476F;stroke-width:8.64"/>
	<circle cx="2116.13" cy="509.25" r="26.35" style="fill:#1A476F"/>
	<circle cx="2116.13" cy="509.25" r="22.03" style="fill:none;stroke:#1A476F;stroke-width:8.64"/>
	<circle cx="3571.55" cy="551.45" r="26.35" style="fill:#1A476F"/>
	<circle cx="3571.55" cy="551.45" r="22.03" style="fill:none;stroke:#1A476F;stroke-width:8.64"/>
	<circle cx="3711.88" cy="365.69" r="26.35" style="fill:#1A476F"/>
	<circle cx="3711.88" cy="365.69" r="22.03" style="fill:none;stroke:#1A476F;stroke-width:8.64"/>
	<circle cx="674.31" cy="2130.18" r="26.35" style="fill:#1A476F"/>
	<circle cx="674.31" cy="2130.18" r="22.03" style="fill:none;stroke:#1A476F;stroke-width:8.64"/>
	<circle cx="3604.96" cy="2425.95" r="26.35" style="fill:#1A476F"/>
	<circle cx="3604.96" cy="2425.95" r="22.03" style="fill:none;stroke:#1A476F;stroke-width:8.64"/>
	<circle cx="730.50" cy="1916.08" r="26.35" style="fill:#1A476F"/>
	<circle cx="730.50" cy="1916.08" r="22.03" style="fill:none;stroke:#1A476F;stroke-width:8.64"/>
	<circle cx="2076.28" cy="2024.86" r="26.35" style="fill:#1A476F"/>
	<circle cx="2076.28" cy="2024.86" r="22.03" style="fill:none;stroke:#1A476F;stroke-width:8.64"/>
	<circle cx="2076.28" cy="1949.49" r="26.35" style="fill:#1A476F"/>
	<circle cx="2076.28" cy="1949.49" r="22.03" style="fill:none;stroke:#1A476F;stroke-width:8.64"/>
	<circle cx="2089.64" cy="1891.95" r="26.35" style="fill:#1A476F"/>
	<circle cx="2089.64" cy="1891.95" r="22.03" style="fill:none;stroke:#1A476F;stroke-width:8.64"/>
	<circle cx="2062.91" cy="1887.74" r="26.35" style="fill:#1A476F"/>
	<circle cx="2062.91" cy="1887.74" r="22.03" style="fill:none;stroke:#1A476F;stroke-width:8.64"/>
	<circle cx="2085.68" cy="1832.18" r="26.35" style="fill:#1A476F"/>
	<circle cx="2085.68" cy="1832.18" r="22.03" style="fill:none;stroke:#1A476F;stroke-width:8.64"/>
	<circle cx="2069.59" cy="1814.97" r="26.35" style="fill:#1A476F"/>
	<circle cx="2069.59" cy="1814.97" r="22.03" style="fill:none;stroke:#1A476F;stroke-width:8.64"/>
	<circle cx="2129.49" cy="1792.45" r="26.35" style="fill:#1A476F"/>
	<circle cx="2129.49" cy="1792.45" r="22.03" style="fill:none;stroke:#1A476F;stroke-width:8.64"/>
	<circle cx="2203.00" cy="1789.23" r="26.35" style="fill:#1A476F"/>
	<circle cx="2203.00" cy="1789.23" r="22.03" style="fill:none;stroke:#1A476F;stroke-width:8.64"/>
	<circle cx="2116.13" cy="1740.60" r="26.35" style="fill:#1A476F"/>
	<circle cx="2116.13" cy="1740.60" r="22.03" style="fill:none;stroke:#1A476F;stroke-width:8.64"/>
	<circle cx="2076.28" cy="1730.20" r="26.35" style="fill:#1A476F"/>
	<circle cx="2076.28" cy="1730.20" r="22.03" style="fill:none;stroke:#1A476F;stroke-width:8.64"/>
	<circle cx="2016.13" cy="1717.58" r="26.35" style="fill:#1A476F"/>
	<circle cx="2016.13" cy="1717.58" r="22.03" style="fill:none;stroke:#1A476F;stroke-width:8.64"/>
	<circle cx="2156.22" cy="1724.39" r="26.35" style="fill:#1A476F"/>
	<circle cx="2156.22" cy="1724.39" r="22.03" style="fill:none;stroke:#1A476F;stroke-width:8.64"/>
	<circle cx="2122.81" cy="1719.19" r="26.35" style="fill:#1A476F"/>
	<circle cx="2122.81" cy="1719.19" r="22.03" style="fill:none;stroke:#1A476F;stroke-width:8.64"/>
	<circle cx="2065.64" cy="1710.15" r="26.35" style="fill:#1A476F"/>
	<circle cx="2065.64" cy="1710.15" r="22.03" style="fill:none;stroke:#1A476F;stroke-width:8.64"/>
	<circle cx="2149.54" cy="1719.19" r="26.35" style="fill:#1A476F"/>
	<circle cx="2149.54" cy="1719.19" r="22.03" style="fill:none;stroke:#1A476F;stroke-width:8.64"/>
	<circle cx="2049.55" cy="1685.65" r="26.35" style="fill:#1A476F"/>
	<circle cx="2049.55" cy="1685.65" r="22.03" style="fill:none;stroke:#1A476F;stroke-width:8.64"/>
	<circle cx="2042.87" cy="1640.23" r="26.35" style="fill:#1A476F"/>
	<circle cx="2042.87" cy="1640.23" r="22.03" style="fill:none;stroke:#1A476F;stroke-width:8.64"/>
	<circle cx="2076.28" cy="1645.43" r="26.35" style="fill:#1A476F"/>
	<circle cx="2076.28" cy="1645.43" r="22.03" style="fill:none;stroke:#1A476F;stroke-width:8.64"/>
	<circle cx="3538.14" cy="1860.27" r="26.35" style="fill:#1A476F"/>
	<circle cx="3538.14" cy="1860.27" r="22.03" style="fill:none;stroke:#1A476F;stroke-width:8.64"/>
	<circle cx="2116.13" cy="1636.52" r="26.35" style="fill:#1A476F"/>
	<circle cx="2116.13" cy="1636.52" r="22.03" style="fill:none;stroke:#1A476F;stroke-width:8.64"/>
	<circle cx="2162.90" cy="1643.82" r="26.35" style="fill:#1A476F"/>
	<circle cx="2162.90" cy="1643.82" r="22.03" style="fill:none;stroke:#1A476F;stroke-width:8.64"/>
	<circle cx="3571.55" cy="1856.06" r="26.35" style="fill:#1A476F"/>
	<circle cx="3571.55" cy="1856.06" r="22.03" style="fill:none;stroke:#1A476F;stroke-width:8.64"/>
	<circle cx="600.81" cy="1377.75" r="26.35" style="fill:#1A476F"/>
	<circle cx="600.81" cy="1377.75" r="22.03" style="fill:none;stroke:#1A476F;stroke-width:8.64"/>
	<circle cx="636.94" cy="1382.83" r="26.35" style="fill:#1A476F"/>
	<circle cx="636.94" cy="1382.83" r="22.03" style="fill:none;stroke:#1A476F;stroke-width:8.64"/>
	<circle cx="2136.17" cy="1585.66" r="26.35" style="fill:#1A476F"/>
	<circle cx="2136.17" cy="1585.66" r="22.03" style="fill:none;stroke:#1A476F;stroke-width:8.64"/>
	<circle cx="2105.73" cy="1580.96" r="26.35" style="fill:#1A476F"/>
	<circle cx="2105.73" cy="1580.96" r="22.03" style="fill:none;stroke:#1A476F;stroke-width:8.64"/>
	<circle cx="620.85" cy="1335.80" r="26.35" style="fill:#1A476F"/>
	<circle cx="620.85" cy="1335.80" r="22.03" style="fill:none;stroke:#1A476F;stroke-width:8.64"/>
	<circle cx="2102.76" cy="1560.66" r="26.35" style="fill:#1A476F"/>
	<circle cx="2102.76" cy="1560.66" r="22.03" style="fill:none;stroke:#1A476F;stroke-width:8.64"/>
	<circle cx="2076.28" cy="1548.66" r="26.35" style="fill:#1A476F"/>
	<circle cx="2076.28" cy="1548.66" r="22.03" style="fill:none;stroke:#1A476F;stroke-width:8.64"/>
	<circle cx="2042.87" cy="1543.33" r="26.35" style="fill:#1A476F"/>
	<circle cx="2042.87" cy="1543.33" r="22.03" style="fill:none;stroke:#1A476F;stroke-width:8.64"/>
	<circle cx="2029.50" cy="1519.33" r="26.35" style="fill:#1A476F"/>
	<circle cx="2029.50" cy="1519.33" r="22.03" style="fill:none;stroke:#1A476F;stroke-width:8.64"/>
	<circle cx="623.58" cy="1291.87" r="26.35" style="fill:#1A476F"/>
	<circle cx="623.58" cy="1291.87" r="22.03" style="fill:none;stroke:#1A476F;stroke-width:8.64"/>
	<circle cx="2122.81" cy="1526.63" r="26.35" style="fill:#1A476F"/>
	<circle cx="2122.81" cy="1526.63" r="22.03" style="fill:none;stroke:#1A476F;stroke-width:8.64"/>
	<circle cx="2049.55" cy="1512.52" r="26.35" style="fill:#1A476F"/>
	<circle cx="2049.55" cy="1512.52" r="22.03" style="fill:none;stroke:#1A476F;stroke-width:8.64"/>
	<circle cx="2082.96" cy="1505.22" r="26.35" style="fill:#1A476F"/>
	<circle cx="2082.96" cy="1505.22" r="22.03" style="fill:none;stroke:#1A476F;stroke-width:8.64"/>
	<circle cx="2196.32" cy="1508.31" r="26.35" style="fill:#1A476F"/>
	<circle cx="2196.32" cy="1508.31" r="22.03" style="fill:none;stroke:#1A476F;stroke-width:8.64"/>
	<circle cx="3511.41" cy="1714.24" r="26.35" style="fill:#1A476F"/>
	<circle cx="3511.41" cy="1714.24" r="22.03" style="fill:none;stroke:#1A476F;stroke-width:8.64"/>
	<circle cx="656.99" cy="1259.94" r="26.35" style="fill:#1A476F"/>
	<circle cx="656.99" cy="1259.94" r="22.03" style="fill:none;stroke:#1A476F;stroke-width:8.64"/>
	<circle cx="636.94" cy="1249.42" r="26.35" style="fill:#1A476F"/>
	<circle cx="636.94" cy="1249.42" r="22.03" style="fill:none;stroke:#1A476F;stroke-width:8.64"/>
	<circle cx="663.67" cy="1253.63" r="26.35" style="fill:#1A476F"/>
	<circle cx="663.67" cy="1253.63" r="22.03" style="fill:none;stroke:#1A476F;stroke-width:8.64"/>
	<circle cx="2009.45" cy="1464.38" r="26.35" style="fill:#1A476F"/>
	<circle cx="2009.45" cy="1464.38" r="22.03" style="fill:none;stroke:#1A476F;stroke-width:8.64"/>
	<circle cx="2062.91" cy="1465.37" r="26.35" style="fill:#1A476F"/>
	<circle cx="2062.91" cy="1465.37" r="22.03" style="fill:none;stroke:#1A476F;stroke-width:8.64"/>
	<circle cx="2189.63" cy="1477.37" r="26.35" style="fill:#1A476F"/>
	<circle cx="2189.63" cy="1477.37" r="22.03" style="fill:none;stroke:#1A476F;stroke-width:8.64"/>
	<circle cx="2136.17" cy="1469.08" r="26.35" style="fill:#1A476F"/>
	<circle cx="2136.17" cy="1469.08" r="22.03" style="fill:none;stroke:#1A476F;stroke-width:8.64"/>
	<circle cx="2102.76" cy="1461.66" r="26.35" style="fill:#1A476F"/>
	<circle cx="2102.76" cy="1461.66" r="22.03" style="fill:none;stroke:#1A476F;stroke-width:8.64"/>
	<circle cx="2142.86" cy="1462.77" r="26.35" style="fill:#1A476F"/>
	<circle cx="2142.86" cy="1462.77" r="22.03" style="fill:none;stroke:#1A476F;stroke-width:8.64"/>
	<circle cx="2039.03" cy="1439.13" r="26.35" style="fill:#1A476F"/>
	<circle cx="2039.03" cy="1439.13" r="22.03" style="fill:none;stroke:#1A476F;stroke-width:8.64"/>
	<circle cx="2082.96" cy="1443.96" r="26.35" style="fill:#1A476F"/>
	<circle cx="2082.96" cy="1443.96" r="22.03" style="fill:none;stroke:#1A476F;stroke-width:8.64"/>
	<circle cx="2042.87" cy="1433.44" r="26.35" style="fill:#1A476F"/>
	<circle cx="2042.87" cy="1433.44" r="22.03" style="fill:none;stroke:#1A476F;stroke-width:8.64"/>
	<circle cx="2162.90" cy="1443.96" r="26.35" style="fill:#1A476F"/>
	<circle cx="2162.90" cy="1443.96" r="22.03" style="fill:none;stroke:#1A476F;stroke-width:8.64"/>
	<circle cx="580.76" cy="1196.08" r="26.35" style="fill:#1A476F"/>
	<circle cx="580.76" cy="1196.08" r="22.03" style="fill:none;stroke:#1A476F;stroke-width:8.64"/>
	<circle cx="2176.27" cy="1445.94" r="26.35" style="fill:#1A476F"/>
	<circle cx="2176.27" cy="1445.94" r="22.03" style="fill:none;stroke:#1A476F;stroke-width:8.64"/>
	<circle cx="2002.77" cy="1403.62" r="26.35" style="fill:#1A476F"/>
	<circle cx="2002.77" cy="1403.62" r="22.03" style="fill:none;stroke:#1A476F;stroke-width:8.64"/>
	<circle cx="640.90" cy="1190.39" r="26.35" style="fill:#1A476F"/>
	<circle cx="640.90" cy="1190.39" r="22.03" style="fill:none;stroke:#1A476F;stroke-width:8.64"/>
	<circle cx="2039.03" cy="1409.31" r="26.35" style="fill:#1A476F"/>
	<circle cx="2039.03" cy="1409.31" r="22.03" style="fill:none;stroke:#1A476F;stroke-width:8.64"/>
	<circle cx="2129.49" cy="1423.54" r="26.35" style="fill:#1A476F"/>
	<circle cx="2129.49" cy="1423.54" r="22.03" style="fill:none;stroke:#1A476F;stroke-width:8.64"/>
	<line x1="390.80" y1="2489.19" x2="390.80" y2="100.86" style="stroke:#000000;stroke-width:5.76"/>
	<line x1="390.80" y1="2257.39" x2="350.83" y2="2257.39" style="stroke:#000000;stroke-width:5.76"/>
	<text x="300.72" y="2257.39" style="font-family:'Helvetica';font-size:99.99px;fill:#000000" transform="rotate(-90 300.72,2257.39)" text-anchor="middle">-2000</text>
	<line x1="390.80" y1="1734.04" x2="350.83" y2="1734.04" style="stroke:#000000;stroke-width:5.76"/>
	<text x="300.72" y="1734.04" style="font-family:'Helvetica';font-size:99.99px;fill:#000000" transform="rotate(-90 300.72,1734.04)" text-anchor="middle">-1000</text>
	<line x1="390.80" y1="1210.81" x2="350.83" y2="1210.81" style="stroke:#000000;stroke-width:5.76"/>
	<text x="300.72" y="1210.81" style="font-family:'Helvetica';font-size:99.99px;fill:#000000" transform="rotate(-90 300.72,1210.81)" text-anchor="middle">0</text>
	<line x1="390.80" y1="687.45" x2="350.83" y2="687.45" style="stroke:#000000;stroke-width:5.76"/>
	<text x="300.72" y="687.45" style="font-family:'Helvetica';font-size:99.99px;fill:#000000" transform="rotate(-90 300.72,687.45)" text-anchor="middle">1000</text>
	<line x1="390.80" y1="164.22" x2="350.83" y2="164.22" style="stroke:#000000;stroke-width:5.76"/>
	<text x="300.72" y="164.22" style="font-family:'Helvetica';font-size:99.99px;fill:#000000" transform="rotate(-90 300.72,164.22)" text-anchor="middle">2000</text>
	<text x="190.71" y="1294.96" style="font-family:'Helvetica';font-size:99.99px;fill:#000000" transform="rotate(-90 190.71,1294.96)" text-anchor="middle">Residuals</text>
	<line x1="390.80" y1="2489.19" x2="3859.02" y2="2489.19" style="stroke:#000000;stroke-width:5.76"/>
	<line x1="454.16" y1="2489.19" x2="454.16" y2="2529.16" style="stroke:#000000;stroke-width:5.76"/>
	<text x="454.16" y="2619.14" style="font-family:'Helvetica';font-size:99.99px;fill:#000000" text-anchor="middle">2400</text>
	<line x1="1122.41" y1="2489.19" x2="1122.41" y2="2529.16" style="stroke:#000000;stroke-width:5.76"/>
	<text x="1122.41" y="2619.14" style="font-family:'Helvetica';font-size:99.99px;fill:#000000" text-anchor="middle">2600</text>
	<line x1="1790.79" y1="2489.19" x2="1790.79" y2="2529.16" style="stroke:#000000;stroke-width:5.76"/>
	<text x="1790.79" y="2619.14" style="font-family:'Helvetica';font-size:99.99px;fill:#000000" text-anchor="middle">2800</text>
	<line x1="2459.04" y1="2489.19" x2="2459.04" y2="2529.16" style="stroke:#000000;stroke-width:5.76"/>
	<text x="2459.04" y="2619.14" style="font-family:'Helvetica';font-size:99.99px;fill:#000000" text-anchor="middle">3000</text>
	<line x1="3127.41" y1="2489.19" x2="3127.41" y2="2529.16" style="stroke:#000000;stroke-width:5.76"/>
	<text x="3127.41" y="2619.14" style="font-family:'Helvetica';font-size:99.99px;fill:#000000" text-anchor="middle">3200</text>
	<line x1="3795.66" y1="2489.19" x2="3795.66" y2="2529.16" style="stroke:#000000;stroke-width:5.76"/>
	<text x="3795.66" y="2619.14" style="font-family:'Helvetica';font-size:99.99px;fill:#000000" text-anchor="middle">3400</text>
	<text x="2124.91" y="2729.16" style="font-family:'Helvetica';font-size:99.99px;fill:#000000" text-anchor="middle">Fitted values</text>
</svg>
